<mxfile host="app.diagrams.net" modified="2023-12-06T15:13:51.638Z" agent="Mozilla/5.0 (Windows NT 10.0; Win64; x64) AppleWebKit/537.36 (KHTML, like Gecko) Chrome/119.0.0.0 Safari/537.36" etag="QuboZiUJSq7Xj4pmkX3_" version="22.1.5" type="device">
  <diagram name="Página-1" id="k29LO2Y5olFIAJzZQsGU">
    <mxGraphModel dx="1827" dy="1666" grid="1" gridSize="10" guides="1" tooltips="1" connect="1" arrows="1" fold="1" page="1" pageScale="1" pageWidth="827" pageHeight="1169" math="0" shadow="0">
      <root>
        <mxCell id="0" />
        <mxCell id="1" parent="0" />
        <mxCell id="_OX-JBq8yyOv4rNZ1e_I-80" value="idJogador" style="text;html=1;align=center;verticalAlign=middle;resizable=0;points=[];autosize=1;strokeColor=none;fillColor=none;fontSize=11;" parent="1" vertex="1">
          <mxGeometry x="51" y="-782" width="70" height="30" as="geometry" />
        </mxCell>
        <mxCell id="_OX-JBq8yyOv4rNZ1e_I-81" value="nome" style="text;html=1;align=center;verticalAlign=middle;resizable=0;points=[];autosize=1;strokeColor=none;fillColor=none;fontSize=11;" parent="1" vertex="1">
          <mxGeometry x="50" y="-752" width="50" height="30" as="geometry" />
        </mxCell>
        <mxCell id="_OX-JBq8yyOv4rNZ1e_I-82" value="numLicença" style="text;html=1;align=center;verticalAlign=middle;resizable=0;points=[];autosize=1;strokeColor=none;fillColor=none;fontSize=11;" parent="1" vertex="1">
          <mxGeometry x="51" y="-767" width="80" height="30" as="geometry" />
        </mxCell>
        <mxCell id="_OX-JBq8yyOv4rNZ1e_I-83" value="dataNascimento" style="text;html=1;align=center;verticalAlign=middle;resizable=0;points=[];autosize=1;strokeColor=none;fillColor=none;fontSize=11;" parent="1" vertex="1">
          <mxGeometry x="51" y="-737" width="100" height="30" as="geometry" />
        </mxCell>
        <mxCell id="_OX-JBq8yyOv4rNZ1e_I-90" value="idGolo" style="text;html=1;align=center;verticalAlign=middle;resizable=0;points=[];autosize=1;strokeColor=none;fillColor=none;fontSize=12;" parent="1" vertex="1">
          <mxGeometry x="220" y="-722" width="60" height="30" as="geometry" />
        </mxCell>
        <mxCell id="_OX-JBq8yyOv4rNZ1e_I-91" value="minuto" style="text;html=1;align=center;verticalAlign=middle;resizable=0;points=[];autosize=1;strokeColor=none;fillColor=none;fontSize=12;" parent="1" vertex="1">
          <mxGeometry x="220" y="-707" width="60" height="30" as="geometry" />
        </mxCell>
        <mxCell id="_OX-JBq8yyOv4rNZ1e_I-92" value="data" style="text;html=1;align=center;verticalAlign=middle;resizable=0;points=[];autosize=1;strokeColor=none;fillColor=none;fontSize=12;" parent="1" vertex="1">
          <mxGeometry x="220" y="-692" width="50" height="30" as="geometry" />
        </mxCell>
        <mxCell id="_OX-JBq8yyOv4rNZ1e_I-133" value="idArbitro" style="text;html=1;align=center;verticalAlign=middle;resizable=0;points=[];autosize=1;strokeColor=none;fillColor=none;" parent="1" vertex="1">
          <mxGeometry x="345" y="-220" width="70" height="30" as="geometry" />
        </mxCell>
        <mxCell id="_OX-JBq8yyOv4rNZ1e_I-134" value="nome" style="text;html=1;align=center;verticalAlign=middle;resizable=0;points=[];autosize=1;strokeColor=none;fillColor=none;" parent="1" vertex="1">
          <mxGeometry x="350" y="-201" width="50" height="30" as="geometry" />
        </mxCell>
        <mxCell id="_OX-JBq8yyOv4rNZ1e_I-135" value="numLicença" style="text;html=1;align=center;verticalAlign=middle;resizable=0;points=[];autosize=1;strokeColor=none;fillColor=none;" parent="1" vertex="1">
          <mxGeometry x="345" y="-178" width="90" height="30" as="geometry" />
        </mxCell>
        <mxCell id="_OX-JBq8yyOv4rNZ1e_I-136" value="dataNascimento" style="text;html=1;align=center;verticalAlign=middle;resizable=0;points=[];autosize=1;strokeColor=none;fillColor=none;" parent="1" vertex="1">
          <mxGeometry x="345" y="-156" width="110" height="30" as="geometry" />
        </mxCell>
        <mxCell id="_OX-JBq8yyOv4rNZ1e_I-138" value="idEstadio" style="text;html=1;align=center;verticalAlign=middle;resizable=0;points=[];autosize=1;strokeColor=none;fillColor=none;" parent="1" vertex="1">
          <mxGeometry x="-465" y="-418" width="70" height="30" as="geometry" />
        </mxCell>
        <mxCell id="_OX-JBq8yyOv4rNZ1e_I-147" value="idSubstituicao" style="text;html=1;align=center;verticalAlign=middle;resizable=0;points=[];autosize=1;strokeColor=none;fillColor=none;fontSize=12;" parent="1" vertex="1">
          <mxGeometry x="1" y="-529.5" width="100" height="30" as="geometry" />
        </mxCell>
        <mxCell id="_OX-JBq8yyOv4rNZ1e_I-149" value="minuto" style="text;html=1;align=center;verticalAlign=middle;resizable=0;points=[];autosize=1;strokeColor=none;fillColor=none;fontSize=12;" parent="1" vertex="1">
          <mxGeometry x="1" y="-510" width="60" height="30" as="geometry" />
        </mxCell>
        <mxCell id="_OX-JBq8yyOv4rNZ1e_I-152" value="data" style="text;html=1;align=center;verticalAlign=middle;resizable=0;points=[];autosize=1;strokeColor=none;fillColor=none;fontSize=12;" parent="1" vertex="1">
          <mxGeometry x="1" y="-494.5" width="50" height="30" as="geometry" />
        </mxCell>
        <mxCell id="_OX-JBq8yyOv4rNZ1e_I-153" value="nome" style="text;html=1;align=center;verticalAlign=middle;resizable=0;points=[];autosize=1;strokeColor=none;fillColor=none;" parent="1" vertex="1">
          <mxGeometry x="-465" y="-400" width="50" height="30" as="geometry" />
        </mxCell>
        <mxCell id="_OX-JBq8yyOv4rNZ1e_I-172" value="Treinador" style="shape=table;startSize=30;container=1;collapsible=1;childLayout=tableLayout;fixedRows=1;rowLines=0;fontStyle=1;align=center;resizeLast=1;html=1;" parent="1" vertex="1">
          <mxGeometry x="-90" y="225" width="180" height="150" as="geometry" />
        </mxCell>
        <mxCell id="_OX-JBq8yyOv4rNZ1e_I-173" value="" style="shape=tableRow;horizontal=0;startSize=0;swimlaneHead=0;swimlaneBody=0;fillColor=none;collapsible=0;dropTarget=0;points=[[0,0.5],[1,0.5]];portConstraint=eastwest;top=0;left=0;right=0;bottom=1;" parent="_OX-JBq8yyOv4rNZ1e_I-172" vertex="1">
          <mxGeometry y="30" width="180" height="30" as="geometry" />
        </mxCell>
        <mxCell id="_OX-JBq8yyOv4rNZ1e_I-174" value="PK" style="shape=partialRectangle;connectable=0;fillColor=none;top=0;left=0;bottom=0;right=0;fontStyle=1;overflow=hidden;whiteSpace=wrap;html=1;" parent="_OX-JBq8yyOv4rNZ1e_I-173" vertex="1">
          <mxGeometry width="30" height="30" as="geometry">
            <mxRectangle width="30" height="30" as="alternateBounds" />
          </mxGeometry>
        </mxCell>
        <mxCell id="_OX-JBq8yyOv4rNZ1e_I-175" value="idTreinador" style="shape=partialRectangle;connectable=0;fillColor=none;top=0;left=0;bottom=0;right=0;align=left;spacingLeft=6;fontStyle=5;overflow=hidden;whiteSpace=wrap;html=1;" parent="_OX-JBq8yyOv4rNZ1e_I-173" vertex="1">
          <mxGeometry x="30" width="150" height="30" as="geometry">
            <mxRectangle width="150" height="30" as="alternateBounds" />
          </mxGeometry>
        </mxCell>
        <mxCell id="_OX-JBq8yyOv4rNZ1e_I-176" value="" style="shape=tableRow;horizontal=0;startSize=0;swimlaneHead=0;swimlaneBody=0;fillColor=none;collapsible=0;dropTarget=0;points=[[0,0.5],[1,0.5]];portConstraint=eastwest;top=0;left=0;right=0;bottom=0;" parent="_OX-JBq8yyOv4rNZ1e_I-172" vertex="1">
          <mxGeometry y="60" width="180" height="30" as="geometry" />
        </mxCell>
        <mxCell id="_OX-JBq8yyOv4rNZ1e_I-177" value="" style="shape=partialRectangle;connectable=0;fillColor=none;top=0;left=0;bottom=0;right=0;editable=1;overflow=hidden;whiteSpace=wrap;html=1;" parent="_OX-JBq8yyOv4rNZ1e_I-176" vertex="1">
          <mxGeometry width="30" height="30" as="geometry">
            <mxRectangle width="30" height="30" as="alternateBounds" />
          </mxGeometry>
        </mxCell>
        <mxCell id="_OX-JBq8yyOv4rNZ1e_I-178" value="nome" style="shape=partialRectangle;connectable=0;fillColor=none;top=0;left=0;bottom=0;right=0;align=left;spacingLeft=6;overflow=hidden;whiteSpace=wrap;html=1;" parent="_OX-JBq8yyOv4rNZ1e_I-176" vertex="1">
          <mxGeometry x="30" width="150" height="30" as="geometry">
            <mxRectangle width="150" height="30" as="alternateBounds" />
          </mxGeometry>
        </mxCell>
        <mxCell id="_OX-JBq8yyOv4rNZ1e_I-179" value="" style="shape=tableRow;horizontal=0;startSize=0;swimlaneHead=0;swimlaneBody=0;fillColor=none;collapsible=0;dropTarget=0;points=[[0,0.5],[1,0.5]];portConstraint=eastwest;top=0;left=0;right=0;bottom=0;" parent="_OX-JBq8yyOv4rNZ1e_I-172" vertex="1">
          <mxGeometry y="90" width="180" height="30" as="geometry" />
        </mxCell>
        <mxCell id="_OX-JBq8yyOv4rNZ1e_I-180" value="" style="shape=partialRectangle;connectable=0;fillColor=none;top=0;left=0;bottom=0;right=0;editable=1;overflow=hidden;whiteSpace=wrap;html=1;" parent="_OX-JBq8yyOv4rNZ1e_I-179" vertex="1">
          <mxGeometry width="30" height="30" as="geometry">
            <mxRectangle width="30" height="30" as="alternateBounds" />
          </mxGeometry>
        </mxCell>
        <mxCell id="_OX-JBq8yyOv4rNZ1e_I-181" value="numLicenca" style="shape=partialRectangle;connectable=0;fillColor=none;top=0;left=0;bottom=0;right=0;align=left;spacingLeft=6;overflow=hidden;whiteSpace=wrap;html=1;" parent="_OX-JBq8yyOv4rNZ1e_I-179" vertex="1">
          <mxGeometry x="30" width="150" height="30" as="geometry">
            <mxRectangle width="150" height="30" as="alternateBounds" />
          </mxGeometry>
        </mxCell>
        <mxCell id="_OX-JBq8yyOv4rNZ1e_I-182" value="" style="shape=tableRow;horizontal=0;startSize=0;swimlaneHead=0;swimlaneBody=0;fillColor=none;collapsible=0;dropTarget=0;points=[[0,0.5],[1,0.5]];portConstraint=eastwest;top=0;left=0;right=0;bottom=0;" parent="_OX-JBq8yyOv4rNZ1e_I-172" vertex="1">
          <mxGeometry y="120" width="180" height="30" as="geometry" />
        </mxCell>
        <mxCell id="_OX-JBq8yyOv4rNZ1e_I-183" value="" style="shape=partialRectangle;connectable=0;fillColor=none;top=0;left=0;bottom=0;right=0;editable=1;overflow=hidden;whiteSpace=wrap;html=1;" parent="_OX-JBq8yyOv4rNZ1e_I-182" vertex="1">
          <mxGeometry width="30" height="30" as="geometry">
            <mxRectangle width="30" height="30" as="alternateBounds" />
          </mxGeometry>
        </mxCell>
        <mxCell id="_OX-JBq8yyOv4rNZ1e_I-184" value="dataNascimento" style="shape=partialRectangle;connectable=0;fillColor=none;top=0;left=0;bottom=0;right=0;align=left;spacingLeft=6;overflow=hidden;whiteSpace=wrap;html=1;" parent="_OX-JBq8yyOv4rNZ1e_I-182" vertex="1">
          <mxGeometry x="30" width="150" height="30" as="geometry">
            <mxRectangle width="150" height="30" as="alternateBounds" />
          </mxGeometry>
        </mxCell>
        <mxCell id="_OX-JBq8yyOv4rNZ1e_I-185" value="Jogo" style="shape=table;startSize=30;container=1;collapsible=1;childLayout=tableLayout;fixedRows=1;rowLines=0;fontStyle=1;align=center;resizeLast=1;html=1;" parent="1" vertex="1">
          <mxGeometry x="436" y="240" width="180" height="180" as="geometry" />
        </mxCell>
        <mxCell id="_OX-JBq8yyOv4rNZ1e_I-186" value="" style="shape=tableRow;horizontal=0;startSize=0;swimlaneHead=0;swimlaneBody=0;fillColor=none;collapsible=0;dropTarget=0;points=[[0,0.5],[1,0.5]];portConstraint=eastwest;top=0;left=0;right=0;bottom=1;" parent="_OX-JBq8yyOv4rNZ1e_I-185" vertex="1">
          <mxGeometry y="30" width="180" height="30" as="geometry" />
        </mxCell>
        <mxCell id="_OX-JBq8yyOv4rNZ1e_I-187" value="PK" style="shape=partialRectangle;connectable=0;fillColor=none;top=0;left=0;bottom=0;right=0;fontStyle=1;overflow=hidden;whiteSpace=wrap;html=1;" parent="_OX-JBq8yyOv4rNZ1e_I-186" vertex="1">
          <mxGeometry width="30" height="30" as="geometry">
            <mxRectangle width="30" height="30" as="alternateBounds" />
          </mxGeometry>
        </mxCell>
        <mxCell id="_OX-JBq8yyOv4rNZ1e_I-188" value="idJogo" style="shape=partialRectangle;connectable=0;fillColor=none;top=0;left=0;bottom=0;right=0;align=left;spacingLeft=6;fontStyle=5;overflow=hidden;whiteSpace=wrap;html=1;" parent="_OX-JBq8yyOv4rNZ1e_I-186" vertex="1">
          <mxGeometry x="30" width="150" height="30" as="geometry">
            <mxRectangle width="150" height="30" as="alternateBounds" />
          </mxGeometry>
        </mxCell>
        <mxCell id="_OX-JBq8yyOv4rNZ1e_I-189" value="" style="shape=tableRow;horizontal=0;startSize=0;swimlaneHead=0;swimlaneBody=0;fillColor=none;collapsible=0;dropTarget=0;points=[[0,0.5],[1,0.5]];portConstraint=eastwest;top=0;left=0;right=0;bottom=0;" parent="_OX-JBq8yyOv4rNZ1e_I-185" vertex="1">
          <mxGeometry y="60" width="180" height="30" as="geometry" />
        </mxCell>
        <mxCell id="_OX-JBq8yyOv4rNZ1e_I-190" value="" style="shape=partialRectangle;connectable=0;fillColor=none;top=0;left=0;bottom=0;right=0;editable=1;overflow=hidden;whiteSpace=wrap;html=1;" parent="_OX-JBq8yyOv4rNZ1e_I-189" vertex="1">
          <mxGeometry width="30" height="30" as="geometry">
            <mxRectangle width="30" height="30" as="alternateBounds" />
          </mxGeometry>
        </mxCell>
        <mxCell id="_OX-JBq8yyOv4rNZ1e_I-191" value="data" style="shape=partialRectangle;connectable=0;fillColor=none;top=0;left=0;bottom=0;right=0;align=left;spacingLeft=6;overflow=hidden;whiteSpace=wrap;html=1;" parent="_OX-JBq8yyOv4rNZ1e_I-189" vertex="1">
          <mxGeometry x="30" width="150" height="30" as="geometry">
            <mxRectangle width="150" height="30" as="alternateBounds" />
          </mxGeometry>
        </mxCell>
        <mxCell id="_OX-JBq8yyOv4rNZ1e_I-192" value="" style="shape=tableRow;horizontal=0;startSize=0;swimlaneHead=0;swimlaneBody=0;fillColor=none;collapsible=0;dropTarget=0;points=[[0,0.5],[1,0.5]];portConstraint=eastwest;top=0;left=0;right=0;bottom=0;" parent="_OX-JBq8yyOv4rNZ1e_I-185" vertex="1">
          <mxGeometry y="90" width="180" height="30" as="geometry" />
        </mxCell>
        <mxCell id="_OX-JBq8yyOv4rNZ1e_I-193" value="" style="shape=partialRectangle;connectable=0;fillColor=none;top=0;left=0;bottom=0;right=0;editable=1;overflow=hidden;whiteSpace=wrap;html=1;" parent="_OX-JBq8yyOv4rNZ1e_I-192" vertex="1">
          <mxGeometry width="30" height="30" as="geometry">
            <mxRectangle width="30" height="30" as="alternateBounds" />
          </mxGeometry>
        </mxCell>
        <mxCell id="_OX-JBq8yyOv4rNZ1e_I-194" value="hora" style="shape=partialRectangle;connectable=0;fillColor=none;top=0;left=0;bottom=0;right=0;align=left;spacingLeft=6;overflow=hidden;whiteSpace=wrap;html=1;" parent="_OX-JBq8yyOv4rNZ1e_I-192" vertex="1">
          <mxGeometry x="30" width="150" height="30" as="geometry">
            <mxRectangle width="150" height="30" as="alternateBounds" />
          </mxGeometry>
        </mxCell>
        <mxCell id="Dixffc02YmFAOPlYMuIK-4" style="shape=tableRow;horizontal=0;startSize=0;swimlaneHead=0;swimlaneBody=0;fillColor=none;collapsible=0;dropTarget=0;points=[[0,0.5],[1,0.5]];portConstraint=eastwest;top=0;left=0;right=0;bottom=0;" parent="_OX-JBq8yyOv4rNZ1e_I-185" vertex="1">
          <mxGeometry y="120" width="180" height="30" as="geometry" />
        </mxCell>
        <mxCell id="Dixffc02YmFAOPlYMuIK-5" value="FK" style="shape=partialRectangle;connectable=0;fillColor=none;top=0;left=0;bottom=0;right=0;editable=1;overflow=hidden;whiteSpace=wrap;html=1;" parent="Dixffc02YmFAOPlYMuIK-4" vertex="1">
          <mxGeometry width="30" height="30" as="geometry">
            <mxRectangle width="30" height="30" as="alternateBounds" />
          </mxGeometry>
        </mxCell>
        <mxCell id="Dixffc02YmFAOPlYMuIK-6" value="idEstadio" style="shape=partialRectangle;connectable=0;fillColor=none;top=0;left=0;bottom=0;right=0;align=left;spacingLeft=6;overflow=hidden;whiteSpace=wrap;html=1;" parent="Dixffc02YmFAOPlYMuIK-4" vertex="1">
          <mxGeometry x="30" width="150" height="30" as="geometry">
            <mxRectangle width="150" height="30" as="alternateBounds" />
          </mxGeometry>
        </mxCell>
        <mxCell id="Dixffc02YmFAOPlYMuIK-13" style="shape=tableRow;horizontal=0;startSize=0;swimlaneHead=0;swimlaneBody=0;fillColor=none;collapsible=0;dropTarget=0;points=[[0,0.5],[1,0.5]];portConstraint=eastwest;top=0;left=0;right=0;bottom=0;" parent="_OX-JBq8yyOv4rNZ1e_I-185" vertex="1">
          <mxGeometry y="150" width="180" height="30" as="geometry" />
        </mxCell>
        <mxCell id="Dixffc02YmFAOPlYMuIK-14" value="FK" style="shape=partialRectangle;connectable=0;fillColor=none;top=0;left=0;bottom=0;right=0;editable=1;overflow=hidden;whiteSpace=wrap;html=1;" parent="Dixffc02YmFAOPlYMuIK-13" vertex="1">
          <mxGeometry width="30" height="30" as="geometry">
            <mxRectangle width="30" height="30" as="alternateBounds" />
          </mxGeometry>
        </mxCell>
        <mxCell id="Dixffc02YmFAOPlYMuIK-15" value="idArbitro" style="shape=partialRectangle;connectable=0;fillColor=none;top=0;left=0;bottom=0;right=0;align=left;spacingLeft=6;overflow=hidden;whiteSpace=wrap;html=1;" parent="Dixffc02YmFAOPlYMuIK-13" vertex="1">
          <mxGeometry x="30" width="150" height="30" as="geometry">
            <mxRectangle width="150" height="30" as="alternateBounds" />
          </mxGeometry>
        </mxCell>
        <mxCell id="_OX-JBq8yyOv4rNZ1e_I-198" value="Golo" style="shape=table;startSize=30;container=1;collapsible=1;childLayout=tableLayout;fixedRows=1;rowLines=0;fontStyle=1;align=center;resizeLast=1;html=1;" parent="1" vertex="1">
          <mxGeometry x="777" y="860" width="180" height="180" as="geometry" />
        </mxCell>
        <mxCell id="_OX-JBq8yyOv4rNZ1e_I-199" value="" style="shape=tableRow;horizontal=0;startSize=0;swimlaneHead=0;swimlaneBody=0;fillColor=none;collapsible=0;dropTarget=0;points=[[0,0.5],[1,0.5]];portConstraint=eastwest;top=0;left=0;right=0;bottom=1;" parent="_OX-JBq8yyOv4rNZ1e_I-198" vertex="1">
          <mxGeometry y="30" width="180" height="30" as="geometry" />
        </mxCell>
        <mxCell id="_OX-JBq8yyOv4rNZ1e_I-200" value="PK" style="shape=partialRectangle;connectable=0;fillColor=none;top=0;left=0;bottom=0;right=0;fontStyle=1;overflow=hidden;whiteSpace=wrap;html=1;" parent="_OX-JBq8yyOv4rNZ1e_I-199" vertex="1">
          <mxGeometry width="30" height="30" as="geometry">
            <mxRectangle width="30" height="30" as="alternateBounds" />
          </mxGeometry>
        </mxCell>
        <mxCell id="_OX-JBq8yyOv4rNZ1e_I-201" value="idGolo" style="shape=partialRectangle;connectable=0;fillColor=none;top=0;left=0;bottom=0;right=0;align=left;spacingLeft=6;fontStyle=5;overflow=hidden;whiteSpace=wrap;html=1;" parent="_OX-JBq8yyOv4rNZ1e_I-199" vertex="1">
          <mxGeometry x="30" width="150" height="30" as="geometry">
            <mxRectangle width="150" height="30" as="alternateBounds" />
          </mxGeometry>
        </mxCell>
        <mxCell id="_OX-JBq8yyOv4rNZ1e_I-202" value="" style="shape=tableRow;horizontal=0;startSize=0;swimlaneHead=0;swimlaneBody=0;fillColor=none;collapsible=0;dropTarget=0;points=[[0,0.5],[1,0.5]];portConstraint=eastwest;top=0;left=0;right=0;bottom=0;" parent="_OX-JBq8yyOv4rNZ1e_I-198" vertex="1">
          <mxGeometry y="60" width="180" height="30" as="geometry" />
        </mxCell>
        <mxCell id="_OX-JBq8yyOv4rNZ1e_I-203" value="" style="shape=partialRectangle;connectable=0;fillColor=none;top=0;left=0;bottom=0;right=0;editable=1;overflow=hidden;whiteSpace=wrap;html=1;" parent="_OX-JBq8yyOv4rNZ1e_I-202" vertex="1">
          <mxGeometry width="30" height="30" as="geometry">
            <mxRectangle width="30" height="30" as="alternateBounds" />
          </mxGeometry>
        </mxCell>
        <mxCell id="_OX-JBq8yyOv4rNZ1e_I-204" value="minuto" style="shape=partialRectangle;connectable=0;fillColor=none;top=0;left=0;bottom=0;right=0;align=left;spacingLeft=6;overflow=hidden;whiteSpace=wrap;html=1;" parent="_OX-JBq8yyOv4rNZ1e_I-202" vertex="1">
          <mxGeometry x="30" width="150" height="30" as="geometry">
            <mxRectangle width="150" height="30" as="alternateBounds" />
          </mxGeometry>
        </mxCell>
        <mxCell id="_OX-JBq8yyOv4rNZ1e_I-205" value="" style="shape=tableRow;horizontal=0;startSize=0;swimlaneHead=0;swimlaneBody=0;fillColor=none;collapsible=0;dropTarget=0;points=[[0,0.5],[1,0.5]];portConstraint=eastwest;top=0;left=0;right=0;bottom=0;" parent="_OX-JBq8yyOv4rNZ1e_I-198" vertex="1">
          <mxGeometry y="90" width="180" height="30" as="geometry" />
        </mxCell>
        <mxCell id="_OX-JBq8yyOv4rNZ1e_I-206" value="" style="shape=partialRectangle;connectable=0;fillColor=none;top=0;left=0;bottom=0;right=0;editable=1;overflow=hidden;whiteSpace=wrap;html=1;" parent="_OX-JBq8yyOv4rNZ1e_I-205" vertex="1">
          <mxGeometry width="30" height="30" as="geometry">
            <mxRectangle width="30" height="30" as="alternateBounds" />
          </mxGeometry>
        </mxCell>
        <mxCell id="_OX-JBq8yyOv4rNZ1e_I-207" value="data" style="shape=partialRectangle;connectable=0;fillColor=none;top=0;left=0;bottom=0;right=0;align=left;spacingLeft=6;overflow=hidden;whiteSpace=wrap;html=1;" parent="_OX-JBq8yyOv4rNZ1e_I-205" vertex="1">
          <mxGeometry x="30" width="150" height="30" as="geometry">
            <mxRectangle width="150" height="30" as="alternateBounds" />
          </mxGeometry>
        </mxCell>
        <mxCell id="_OX-JBq8yyOv4rNZ1e_I-208" value="" style="shape=tableRow;horizontal=0;startSize=0;swimlaneHead=0;swimlaneBody=0;fillColor=none;collapsible=0;dropTarget=0;points=[[0,0.5],[1,0.5]];portConstraint=eastwest;top=0;left=0;right=0;bottom=0;" parent="_OX-JBq8yyOv4rNZ1e_I-198" vertex="1">
          <mxGeometry y="120" width="180" height="30" as="geometry" />
        </mxCell>
        <mxCell id="_OX-JBq8yyOv4rNZ1e_I-209" value="FK" style="shape=partialRectangle;connectable=0;fillColor=none;top=0;left=0;bottom=0;right=0;editable=1;overflow=hidden;whiteSpace=wrap;html=1;" parent="_OX-JBq8yyOv4rNZ1e_I-208" vertex="1">
          <mxGeometry width="30" height="30" as="geometry">
            <mxRectangle width="30" height="30" as="alternateBounds" />
          </mxGeometry>
        </mxCell>
        <mxCell id="_OX-JBq8yyOv4rNZ1e_I-210" value="idJogo" style="shape=partialRectangle;connectable=0;fillColor=none;top=0;left=0;bottom=0;right=0;align=left;spacingLeft=6;overflow=hidden;whiteSpace=wrap;html=1;" parent="_OX-JBq8yyOv4rNZ1e_I-208" vertex="1">
          <mxGeometry x="30" width="150" height="30" as="geometry">
            <mxRectangle width="150" height="30" as="alternateBounds" />
          </mxGeometry>
        </mxCell>
        <mxCell id="Dixffc02YmFAOPlYMuIK-26" style="shape=tableRow;horizontal=0;startSize=0;swimlaneHead=0;swimlaneBody=0;fillColor=none;collapsible=0;dropTarget=0;points=[[0,0.5],[1,0.5]];portConstraint=eastwest;top=0;left=0;right=0;bottom=0;" parent="_OX-JBq8yyOv4rNZ1e_I-198" vertex="1">
          <mxGeometry y="150" width="180" height="30" as="geometry" />
        </mxCell>
        <mxCell id="Dixffc02YmFAOPlYMuIK-27" value="FK" style="shape=partialRectangle;connectable=0;fillColor=none;top=0;left=0;bottom=0;right=0;editable=1;overflow=hidden;whiteSpace=wrap;html=1;" parent="Dixffc02YmFAOPlYMuIK-26" vertex="1">
          <mxGeometry width="30" height="30" as="geometry">
            <mxRectangle width="30" height="30" as="alternateBounds" />
          </mxGeometry>
        </mxCell>
        <mxCell id="Dixffc02YmFAOPlYMuIK-28" value="idJogador" style="shape=partialRectangle;connectable=0;fillColor=none;top=0;left=0;bottom=0;right=0;align=left;spacingLeft=6;overflow=hidden;whiteSpace=wrap;html=1;" parent="Dixffc02YmFAOPlYMuIK-26" vertex="1">
          <mxGeometry x="30" width="150" height="30" as="geometry">
            <mxRectangle width="150" height="30" as="alternateBounds" />
          </mxGeometry>
        </mxCell>
        <mxCell id="_OX-JBq8yyOv4rNZ1e_I-211" value="Arbitro" style="shape=table;startSize=30;container=1;collapsible=1;childLayout=tableLayout;fixedRows=1;rowLines=0;fontStyle=1;align=center;resizeLast=1;html=1;" parent="1" vertex="1">
          <mxGeometry x="780" y="210" width="180" height="150" as="geometry" />
        </mxCell>
        <mxCell id="_OX-JBq8yyOv4rNZ1e_I-212" value="" style="shape=tableRow;horizontal=0;startSize=0;swimlaneHead=0;swimlaneBody=0;fillColor=none;collapsible=0;dropTarget=0;points=[[0,0.5],[1,0.5]];portConstraint=eastwest;top=0;left=0;right=0;bottom=1;" parent="_OX-JBq8yyOv4rNZ1e_I-211" vertex="1">
          <mxGeometry y="30" width="180" height="30" as="geometry" />
        </mxCell>
        <mxCell id="_OX-JBq8yyOv4rNZ1e_I-213" value="PK" style="shape=partialRectangle;connectable=0;fillColor=none;top=0;left=0;bottom=0;right=0;fontStyle=1;overflow=hidden;whiteSpace=wrap;html=1;" parent="_OX-JBq8yyOv4rNZ1e_I-212" vertex="1">
          <mxGeometry width="30" height="30" as="geometry">
            <mxRectangle width="30" height="30" as="alternateBounds" />
          </mxGeometry>
        </mxCell>
        <mxCell id="_OX-JBq8yyOv4rNZ1e_I-214" value="idArbitro" style="shape=partialRectangle;connectable=0;fillColor=none;top=0;left=0;bottom=0;right=0;align=left;spacingLeft=6;fontStyle=5;overflow=hidden;whiteSpace=wrap;html=1;" parent="_OX-JBq8yyOv4rNZ1e_I-212" vertex="1">
          <mxGeometry x="30" width="150" height="30" as="geometry">
            <mxRectangle width="150" height="30" as="alternateBounds" />
          </mxGeometry>
        </mxCell>
        <mxCell id="_OX-JBq8yyOv4rNZ1e_I-215" value="" style="shape=tableRow;horizontal=0;startSize=0;swimlaneHead=0;swimlaneBody=0;fillColor=none;collapsible=0;dropTarget=0;points=[[0,0.5],[1,0.5]];portConstraint=eastwest;top=0;left=0;right=0;bottom=0;" parent="_OX-JBq8yyOv4rNZ1e_I-211" vertex="1">
          <mxGeometry y="60" width="180" height="30" as="geometry" />
        </mxCell>
        <mxCell id="_OX-JBq8yyOv4rNZ1e_I-216" value="" style="shape=partialRectangle;connectable=0;fillColor=none;top=0;left=0;bottom=0;right=0;editable=1;overflow=hidden;whiteSpace=wrap;html=1;" parent="_OX-JBq8yyOv4rNZ1e_I-215" vertex="1">
          <mxGeometry width="30" height="30" as="geometry">
            <mxRectangle width="30" height="30" as="alternateBounds" />
          </mxGeometry>
        </mxCell>
        <mxCell id="_OX-JBq8yyOv4rNZ1e_I-217" value="nome" style="shape=partialRectangle;connectable=0;fillColor=none;top=0;left=0;bottom=0;right=0;align=left;spacingLeft=6;overflow=hidden;whiteSpace=wrap;html=1;" parent="_OX-JBq8yyOv4rNZ1e_I-215" vertex="1">
          <mxGeometry x="30" width="150" height="30" as="geometry">
            <mxRectangle width="150" height="30" as="alternateBounds" />
          </mxGeometry>
        </mxCell>
        <mxCell id="_OX-JBq8yyOv4rNZ1e_I-218" value="" style="shape=tableRow;horizontal=0;startSize=0;swimlaneHead=0;swimlaneBody=0;fillColor=none;collapsible=0;dropTarget=0;points=[[0,0.5],[1,0.5]];portConstraint=eastwest;top=0;left=0;right=0;bottom=0;" parent="_OX-JBq8yyOv4rNZ1e_I-211" vertex="1">
          <mxGeometry y="90" width="180" height="30" as="geometry" />
        </mxCell>
        <mxCell id="_OX-JBq8yyOv4rNZ1e_I-219" value="" style="shape=partialRectangle;connectable=0;fillColor=none;top=0;left=0;bottom=0;right=0;editable=1;overflow=hidden;whiteSpace=wrap;html=1;" parent="_OX-JBq8yyOv4rNZ1e_I-218" vertex="1">
          <mxGeometry width="30" height="30" as="geometry">
            <mxRectangle width="30" height="30" as="alternateBounds" />
          </mxGeometry>
        </mxCell>
        <mxCell id="_OX-JBq8yyOv4rNZ1e_I-220" value="numLicenca" style="shape=partialRectangle;connectable=0;fillColor=none;top=0;left=0;bottom=0;right=0;align=left;spacingLeft=6;overflow=hidden;whiteSpace=wrap;html=1;" parent="_OX-JBq8yyOv4rNZ1e_I-218" vertex="1">
          <mxGeometry x="30" width="150" height="30" as="geometry">
            <mxRectangle width="150" height="30" as="alternateBounds" />
          </mxGeometry>
        </mxCell>
        <mxCell id="_OX-JBq8yyOv4rNZ1e_I-221" value="" style="shape=tableRow;horizontal=0;startSize=0;swimlaneHead=0;swimlaneBody=0;fillColor=none;collapsible=0;dropTarget=0;points=[[0,0.5],[1,0.5]];portConstraint=eastwest;top=0;left=0;right=0;bottom=0;" parent="_OX-JBq8yyOv4rNZ1e_I-211" vertex="1">
          <mxGeometry y="120" width="180" height="30" as="geometry" />
        </mxCell>
        <mxCell id="_OX-JBq8yyOv4rNZ1e_I-222" value="" style="shape=partialRectangle;connectable=0;fillColor=none;top=0;left=0;bottom=0;right=0;editable=1;overflow=hidden;whiteSpace=wrap;html=1;" parent="_OX-JBq8yyOv4rNZ1e_I-221" vertex="1">
          <mxGeometry width="30" height="30" as="geometry">
            <mxRectangle width="30" height="30" as="alternateBounds" />
          </mxGeometry>
        </mxCell>
        <mxCell id="_OX-JBq8yyOv4rNZ1e_I-223" value="dataNascimento" style="shape=partialRectangle;connectable=0;fillColor=none;top=0;left=0;bottom=0;right=0;align=left;spacingLeft=6;overflow=hidden;whiteSpace=wrap;html=1;" parent="_OX-JBq8yyOv4rNZ1e_I-221" vertex="1">
          <mxGeometry x="30" width="150" height="30" as="geometry">
            <mxRectangle width="150" height="30" as="alternateBounds" />
          </mxGeometry>
        </mxCell>
        <mxCell id="_OX-JBq8yyOv4rNZ1e_I-224" value="Jogador" style="shape=table;startSize=30;container=1;collapsible=1;childLayout=tableLayout;fixedRows=1;rowLines=0;fontStyle=1;align=center;resizeLast=1;html=1;" parent="1" vertex="1">
          <mxGeometry x="-90" y="650" width="180" height="240" as="geometry" />
        </mxCell>
        <mxCell id="_OX-JBq8yyOv4rNZ1e_I-225" value="" style="shape=tableRow;horizontal=0;startSize=0;swimlaneHead=0;swimlaneBody=0;fillColor=none;collapsible=0;dropTarget=0;points=[[0,0.5],[1,0.5]];portConstraint=eastwest;top=0;left=0;right=0;bottom=1;" parent="_OX-JBq8yyOv4rNZ1e_I-224" vertex="1">
          <mxGeometry y="30" width="180" height="30" as="geometry" />
        </mxCell>
        <mxCell id="_OX-JBq8yyOv4rNZ1e_I-226" value="PK" style="shape=partialRectangle;connectable=0;fillColor=none;top=0;left=0;bottom=0;right=0;fontStyle=1;overflow=hidden;whiteSpace=wrap;html=1;" parent="_OX-JBq8yyOv4rNZ1e_I-225" vertex="1">
          <mxGeometry width="30" height="30" as="geometry">
            <mxRectangle width="30" height="30" as="alternateBounds" />
          </mxGeometry>
        </mxCell>
        <mxCell id="_OX-JBq8yyOv4rNZ1e_I-227" value="idJogador" style="shape=partialRectangle;connectable=0;fillColor=none;top=0;left=0;bottom=0;right=0;align=left;spacingLeft=6;fontStyle=5;overflow=hidden;whiteSpace=wrap;html=1;" parent="_OX-JBq8yyOv4rNZ1e_I-225" vertex="1">
          <mxGeometry x="30" width="150" height="30" as="geometry">
            <mxRectangle width="150" height="30" as="alternateBounds" />
          </mxGeometry>
        </mxCell>
        <mxCell id="_OX-JBq8yyOv4rNZ1e_I-228" value="" style="shape=tableRow;horizontal=0;startSize=0;swimlaneHead=0;swimlaneBody=0;fillColor=none;collapsible=0;dropTarget=0;points=[[0,0.5],[1,0.5]];portConstraint=eastwest;top=0;left=0;right=0;bottom=0;" parent="_OX-JBq8yyOv4rNZ1e_I-224" vertex="1">
          <mxGeometry y="60" width="180" height="30" as="geometry" />
        </mxCell>
        <mxCell id="_OX-JBq8yyOv4rNZ1e_I-229" value="" style="shape=partialRectangle;connectable=0;fillColor=none;top=0;left=0;bottom=0;right=0;editable=1;overflow=hidden;whiteSpace=wrap;html=1;" parent="_OX-JBq8yyOv4rNZ1e_I-228" vertex="1">
          <mxGeometry width="30" height="30" as="geometry">
            <mxRectangle width="30" height="30" as="alternateBounds" />
          </mxGeometry>
        </mxCell>
        <mxCell id="_OX-JBq8yyOv4rNZ1e_I-230" value="nome" style="shape=partialRectangle;connectable=0;fillColor=none;top=0;left=0;bottom=0;right=0;align=left;spacingLeft=6;overflow=hidden;whiteSpace=wrap;html=1;" parent="_OX-JBq8yyOv4rNZ1e_I-228" vertex="1">
          <mxGeometry x="30" width="150" height="30" as="geometry">
            <mxRectangle width="150" height="30" as="alternateBounds" />
          </mxGeometry>
        </mxCell>
        <mxCell id="_OX-JBq8yyOv4rNZ1e_I-231" value="" style="shape=tableRow;horizontal=0;startSize=0;swimlaneHead=0;swimlaneBody=0;fillColor=none;collapsible=0;dropTarget=0;points=[[0,0.5],[1,0.5]];portConstraint=eastwest;top=0;left=0;right=0;bottom=0;" parent="_OX-JBq8yyOv4rNZ1e_I-224" vertex="1">
          <mxGeometry y="90" width="180" height="30" as="geometry" />
        </mxCell>
        <mxCell id="_OX-JBq8yyOv4rNZ1e_I-232" value="" style="shape=partialRectangle;connectable=0;fillColor=none;top=0;left=0;bottom=0;right=0;editable=1;overflow=hidden;whiteSpace=wrap;html=1;" parent="_OX-JBq8yyOv4rNZ1e_I-231" vertex="1">
          <mxGeometry width="30" height="30" as="geometry">
            <mxRectangle width="30" height="30" as="alternateBounds" />
          </mxGeometry>
        </mxCell>
        <mxCell id="_OX-JBq8yyOv4rNZ1e_I-233" value="numLicenca" style="shape=partialRectangle;connectable=0;fillColor=none;top=0;left=0;bottom=0;right=0;align=left;spacingLeft=6;overflow=hidden;whiteSpace=wrap;html=1;" parent="_OX-JBq8yyOv4rNZ1e_I-231" vertex="1">
          <mxGeometry x="30" width="150" height="30" as="geometry">
            <mxRectangle width="150" height="30" as="alternateBounds" />
          </mxGeometry>
        </mxCell>
        <mxCell id="_OX-JBq8yyOv4rNZ1e_I-234" value="" style="shape=tableRow;horizontal=0;startSize=0;swimlaneHead=0;swimlaneBody=0;fillColor=none;collapsible=0;dropTarget=0;points=[[0,0.5],[1,0.5]];portConstraint=eastwest;top=0;left=0;right=0;bottom=0;" parent="_OX-JBq8yyOv4rNZ1e_I-224" vertex="1">
          <mxGeometry y="120" width="180" height="30" as="geometry" />
        </mxCell>
        <mxCell id="_OX-JBq8yyOv4rNZ1e_I-235" value="" style="shape=partialRectangle;connectable=0;fillColor=none;top=0;left=0;bottom=0;right=0;editable=1;overflow=hidden;whiteSpace=wrap;html=1;" parent="_OX-JBq8yyOv4rNZ1e_I-234" vertex="1">
          <mxGeometry width="30" height="30" as="geometry">
            <mxRectangle width="30" height="30" as="alternateBounds" />
          </mxGeometry>
        </mxCell>
        <mxCell id="_OX-JBq8yyOv4rNZ1e_I-236" value="dataLicenca" style="shape=partialRectangle;connectable=0;fillColor=none;top=0;left=0;bottom=0;right=0;align=left;spacingLeft=6;overflow=hidden;whiteSpace=wrap;html=1;" parent="_OX-JBq8yyOv4rNZ1e_I-234" vertex="1">
          <mxGeometry x="30" width="150" height="30" as="geometry">
            <mxRectangle width="150" height="30" as="alternateBounds" />
          </mxGeometry>
        </mxCell>
        <mxCell id="_OX-JBq8yyOv4rNZ1e_I-266" style="shape=tableRow;horizontal=0;startSize=0;swimlaneHead=0;swimlaneBody=0;fillColor=none;collapsible=0;dropTarget=0;points=[[0,0.5],[1,0.5]];portConstraint=eastwest;top=0;left=0;right=0;bottom=0;" parent="_OX-JBq8yyOv4rNZ1e_I-224" vertex="1">
          <mxGeometry y="150" width="180" height="30" as="geometry" />
        </mxCell>
        <mxCell id="_OX-JBq8yyOv4rNZ1e_I-267" style="shape=partialRectangle;connectable=0;fillColor=none;top=0;left=0;bottom=0;right=0;editable=1;overflow=hidden;whiteSpace=wrap;html=1;" parent="_OX-JBq8yyOv4rNZ1e_I-266" vertex="1">
          <mxGeometry width="30" height="30" as="geometry">
            <mxRectangle width="30" height="30" as="alternateBounds" />
          </mxGeometry>
        </mxCell>
        <mxCell id="_OX-JBq8yyOv4rNZ1e_I-268" value="nacionalidade" style="shape=partialRectangle;connectable=0;fillColor=none;top=0;left=0;bottom=0;right=0;align=left;spacingLeft=6;overflow=hidden;whiteSpace=wrap;html=1;" parent="_OX-JBq8yyOv4rNZ1e_I-266" vertex="1">
          <mxGeometry x="30" width="150" height="30" as="geometry">
            <mxRectangle width="150" height="30" as="alternateBounds" />
          </mxGeometry>
        </mxCell>
        <mxCell id="_OX-JBq8yyOv4rNZ1e_I-326" style="shape=tableRow;horizontal=0;startSize=0;swimlaneHead=0;swimlaneBody=0;fillColor=none;collapsible=0;dropTarget=0;points=[[0,0.5],[1,0.5]];portConstraint=eastwest;top=0;left=0;right=0;bottom=0;" parent="_OX-JBq8yyOv4rNZ1e_I-224" vertex="1">
          <mxGeometry y="180" width="180" height="30" as="geometry" />
        </mxCell>
        <mxCell id="_OX-JBq8yyOv4rNZ1e_I-327" value="FK" style="shape=partialRectangle;connectable=0;fillColor=none;top=0;left=0;bottom=0;right=0;editable=1;overflow=hidden;whiteSpace=wrap;html=1;" parent="_OX-JBq8yyOv4rNZ1e_I-326" vertex="1">
          <mxGeometry width="30" height="30" as="geometry">
            <mxRectangle width="30" height="30" as="alternateBounds" />
          </mxGeometry>
        </mxCell>
        <mxCell id="_OX-JBq8yyOv4rNZ1e_I-328" value="idPosicao" style="shape=partialRectangle;connectable=0;fillColor=none;top=0;left=0;bottom=0;right=0;align=left;spacingLeft=6;overflow=hidden;whiteSpace=wrap;html=1;" parent="_OX-JBq8yyOv4rNZ1e_I-326" vertex="1">
          <mxGeometry x="30" width="150" height="30" as="geometry">
            <mxRectangle width="150" height="30" as="alternateBounds" />
          </mxGeometry>
        </mxCell>
        <mxCell id="Dixffc02YmFAOPlYMuIK-1" style="shape=tableRow;horizontal=0;startSize=0;swimlaneHead=0;swimlaneBody=0;fillColor=none;collapsible=0;dropTarget=0;points=[[0,0.5],[1,0.5]];portConstraint=eastwest;top=0;left=0;right=0;bottom=0;" parent="_OX-JBq8yyOv4rNZ1e_I-224" vertex="1">
          <mxGeometry y="210" width="180" height="30" as="geometry" />
        </mxCell>
        <mxCell id="Dixffc02YmFAOPlYMuIK-2" value="FK" style="shape=partialRectangle;connectable=0;fillColor=none;top=0;left=0;bottom=0;right=0;editable=1;overflow=hidden;whiteSpace=wrap;html=1;" parent="Dixffc02YmFAOPlYMuIK-1" vertex="1">
          <mxGeometry width="30" height="30" as="geometry">
            <mxRectangle width="30" height="30" as="alternateBounds" />
          </mxGeometry>
        </mxCell>
        <mxCell id="Dixffc02YmFAOPlYMuIK-3" value="idEquipa" style="shape=partialRectangle;connectable=0;fillColor=none;top=0;left=0;bottom=0;right=0;align=left;spacingLeft=6;overflow=hidden;whiteSpace=wrap;html=1;" parent="Dixffc02YmFAOPlYMuIK-1" vertex="1">
          <mxGeometry x="30" width="150" height="30" as="geometry">
            <mxRectangle width="150" height="30" as="alternateBounds" />
          </mxGeometry>
        </mxCell>
        <mxCell id="_OX-JBq8yyOv4rNZ1e_I-237" value="Estadio" style="shape=table;startSize=30;container=1;collapsible=1;childLayout=tableLayout;fixedRows=1;rowLines=0;fontStyle=1;align=center;resizeLast=1;html=1;" parent="1" vertex="1">
          <mxGeometry x="351" y="430" width="180" height="90" as="geometry" />
        </mxCell>
        <mxCell id="_OX-JBq8yyOv4rNZ1e_I-238" value="" style="shape=tableRow;horizontal=0;startSize=0;swimlaneHead=0;swimlaneBody=0;fillColor=none;collapsible=0;dropTarget=0;points=[[0,0.5],[1,0.5]];portConstraint=eastwest;top=0;left=0;right=0;bottom=1;" parent="_OX-JBq8yyOv4rNZ1e_I-237" vertex="1">
          <mxGeometry y="30" width="180" height="30" as="geometry" />
        </mxCell>
        <mxCell id="_OX-JBq8yyOv4rNZ1e_I-239" value="PK" style="shape=partialRectangle;connectable=0;fillColor=none;top=0;left=0;bottom=0;right=0;fontStyle=1;overflow=hidden;whiteSpace=wrap;html=1;" parent="_OX-JBq8yyOv4rNZ1e_I-238" vertex="1">
          <mxGeometry width="30" height="30" as="geometry">
            <mxRectangle width="30" height="30" as="alternateBounds" />
          </mxGeometry>
        </mxCell>
        <mxCell id="_OX-JBq8yyOv4rNZ1e_I-240" value="idEstadio" style="shape=partialRectangle;connectable=0;fillColor=none;top=0;left=0;bottom=0;right=0;align=left;spacingLeft=6;fontStyle=5;overflow=hidden;whiteSpace=wrap;html=1;" parent="_OX-JBq8yyOv4rNZ1e_I-238" vertex="1">
          <mxGeometry x="30" width="150" height="30" as="geometry">
            <mxRectangle width="150" height="30" as="alternateBounds" />
          </mxGeometry>
        </mxCell>
        <mxCell id="_OX-JBq8yyOv4rNZ1e_I-241" value="" style="shape=tableRow;horizontal=0;startSize=0;swimlaneHead=0;swimlaneBody=0;fillColor=none;collapsible=0;dropTarget=0;points=[[0,0.5],[1,0.5]];portConstraint=eastwest;top=0;left=0;right=0;bottom=0;" parent="_OX-JBq8yyOv4rNZ1e_I-237" vertex="1">
          <mxGeometry y="60" width="180" height="30" as="geometry" />
        </mxCell>
        <mxCell id="_OX-JBq8yyOv4rNZ1e_I-242" value="" style="shape=partialRectangle;connectable=0;fillColor=none;top=0;left=0;bottom=0;right=0;editable=1;overflow=hidden;whiteSpace=wrap;html=1;" parent="_OX-JBq8yyOv4rNZ1e_I-241" vertex="1">
          <mxGeometry width="30" height="30" as="geometry">
            <mxRectangle width="30" height="30" as="alternateBounds" />
          </mxGeometry>
        </mxCell>
        <mxCell id="_OX-JBq8yyOv4rNZ1e_I-243" value="nome" style="shape=partialRectangle;connectable=0;fillColor=none;top=0;left=0;bottom=0;right=0;align=left;spacingLeft=6;overflow=hidden;whiteSpace=wrap;html=1;" parent="_OX-JBq8yyOv4rNZ1e_I-241" vertex="1">
          <mxGeometry x="30" width="150" height="30" as="geometry">
            <mxRectangle width="150" height="30" as="alternateBounds" />
          </mxGeometry>
        </mxCell>
        <mxCell id="_OX-JBq8yyOv4rNZ1e_I-250" value="Equipa" style="shape=table;startSize=30;container=1;collapsible=1;childLayout=tableLayout;fixedRows=1;rowLines=0;fontStyle=1;align=center;resizeLast=1;html=1;" parent="1" vertex="1">
          <mxGeometry x="-85" y="447" width="180" height="150" as="geometry" />
        </mxCell>
        <mxCell id="_OX-JBq8yyOv4rNZ1e_I-251" value="" style="shape=tableRow;horizontal=0;startSize=0;swimlaneHead=0;swimlaneBody=0;fillColor=none;collapsible=0;dropTarget=0;points=[[0,0.5],[1,0.5]];portConstraint=eastwest;top=0;left=0;right=0;bottom=1;" parent="_OX-JBq8yyOv4rNZ1e_I-250" vertex="1">
          <mxGeometry y="30" width="180" height="30" as="geometry" />
        </mxCell>
        <mxCell id="_OX-JBq8yyOv4rNZ1e_I-252" value="PK" style="shape=partialRectangle;connectable=0;fillColor=none;top=0;left=0;bottom=0;right=0;fontStyle=1;overflow=hidden;whiteSpace=wrap;html=1;" parent="_OX-JBq8yyOv4rNZ1e_I-251" vertex="1">
          <mxGeometry width="30" height="30" as="geometry">
            <mxRectangle width="30" height="30" as="alternateBounds" />
          </mxGeometry>
        </mxCell>
        <mxCell id="_OX-JBq8yyOv4rNZ1e_I-253" value="idEquipa" style="shape=partialRectangle;connectable=0;fillColor=none;top=0;left=0;bottom=0;right=0;align=left;spacingLeft=6;fontStyle=5;overflow=hidden;whiteSpace=wrap;html=1;" parent="_OX-JBq8yyOv4rNZ1e_I-251" vertex="1">
          <mxGeometry x="30" width="150" height="30" as="geometry">
            <mxRectangle width="150" height="30" as="alternateBounds" />
          </mxGeometry>
        </mxCell>
        <mxCell id="_OX-JBq8yyOv4rNZ1e_I-254" value="" style="shape=tableRow;horizontal=0;startSize=0;swimlaneHead=0;swimlaneBody=0;fillColor=none;collapsible=0;dropTarget=0;points=[[0,0.5],[1,0.5]];portConstraint=eastwest;top=0;left=0;right=0;bottom=0;" parent="_OX-JBq8yyOv4rNZ1e_I-250" vertex="1">
          <mxGeometry y="60" width="180" height="30" as="geometry" />
        </mxCell>
        <mxCell id="_OX-JBq8yyOv4rNZ1e_I-255" value="" style="shape=partialRectangle;connectable=0;fillColor=none;top=0;left=0;bottom=0;right=0;editable=1;overflow=hidden;whiteSpace=wrap;html=1;" parent="_OX-JBq8yyOv4rNZ1e_I-254" vertex="1">
          <mxGeometry width="30" height="30" as="geometry">
            <mxRectangle width="30" height="30" as="alternateBounds" />
          </mxGeometry>
        </mxCell>
        <mxCell id="_OX-JBq8yyOv4rNZ1e_I-256" value="nome" style="shape=partialRectangle;connectable=0;fillColor=none;top=0;left=0;bottom=0;right=0;align=left;spacingLeft=6;overflow=hidden;whiteSpace=wrap;html=1;" parent="_OX-JBq8yyOv4rNZ1e_I-254" vertex="1">
          <mxGeometry x="30" width="150" height="30" as="geometry">
            <mxRectangle width="150" height="30" as="alternateBounds" />
          </mxGeometry>
        </mxCell>
        <mxCell id="_OX-JBq8yyOv4rNZ1e_I-300" style="shape=tableRow;horizontal=0;startSize=0;swimlaneHead=0;swimlaneBody=0;fillColor=none;collapsible=0;dropTarget=0;points=[[0,0.5],[1,0.5]];portConstraint=eastwest;top=0;left=0;right=0;bottom=0;" parent="_OX-JBq8yyOv4rNZ1e_I-250" vertex="1">
          <mxGeometry y="90" width="180" height="30" as="geometry" />
        </mxCell>
        <mxCell id="_OX-JBq8yyOv4rNZ1e_I-301" value="FK" style="shape=partialRectangle;connectable=0;fillColor=none;top=0;left=0;bottom=0;right=0;editable=1;overflow=hidden;whiteSpace=wrap;html=1;" parent="_OX-JBq8yyOv4rNZ1e_I-300" vertex="1">
          <mxGeometry width="30" height="30" as="geometry">
            <mxRectangle width="30" height="30" as="alternateBounds" />
          </mxGeometry>
        </mxCell>
        <mxCell id="_OX-JBq8yyOv4rNZ1e_I-302" value="idTreinador" style="shape=partialRectangle;connectable=0;fillColor=none;top=0;left=0;bottom=0;right=0;align=left;spacingLeft=6;overflow=hidden;whiteSpace=wrap;html=1;" parent="_OX-JBq8yyOv4rNZ1e_I-300" vertex="1">
          <mxGeometry x="30" width="150" height="30" as="geometry">
            <mxRectangle width="150" height="30" as="alternateBounds" />
          </mxGeometry>
        </mxCell>
        <mxCell id="Dixffc02YmFAOPlYMuIK-10" style="shape=tableRow;horizontal=0;startSize=0;swimlaneHead=0;swimlaneBody=0;fillColor=none;collapsible=0;dropTarget=0;points=[[0,0.5],[1,0.5]];portConstraint=eastwest;top=0;left=0;right=0;bottom=0;" parent="_OX-JBq8yyOv4rNZ1e_I-250" vertex="1">
          <mxGeometry y="120" width="180" height="30" as="geometry" />
        </mxCell>
        <mxCell id="Dixffc02YmFAOPlYMuIK-11" value="FK" style="shape=partialRectangle;connectable=0;fillColor=none;top=0;left=0;bottom=0;right=0;editable=1;overflow=hidden;whiteSpace=wrap;html=1;" parent="Dixffc02YmFAOPlYMuIK-10" vertex="1">
          <mxGeometry width="30" height="30" as="geometry">
            <mxRectangle width="30" height="30" as="alternateBounds" />
          </mxGeometry>
        </mxCell>
        <mxCell id="Dixffc02YmFAOPlYMuIK-12" value="idEstadio" style="shape=partialRectangle;connectable=0;fillColor=none;top=0;left=0;bottom=0;right=0;align=left;spacingLeft=6;overflow=hidden;whiteSpace=wrap;html=1;" parent="Dixffc02YmFAOPlYMuIK-10" vertex="1">
          <mxGeometry x="30" width="150" height="30" as="geometry">
            <mxRectangle width="150" height="30" as="alternateBounds" />
          </mxGeometry>
        </mxCell>
        <mxCell id="_OX-JBq8yyOv4rNZ1e_I-274" value="idJogo" style="text;html=1;align=center;verticalAlign=middle;resizable=0;points=[];autosize=1;strokeColor=none;fillColor=none;fontSize=11;" parent="1" vertex="1">
          <mxGeometry x="-79" y="-367" width="60" height="30" as="geometry" />
        </mxCell>
        <mxCell id="_OX-JBq8yyOv4rNZ1e_I-275" value="data" style="text;html=1;align=center;verticalAlign=middle;resizable=0;points=[];autosize=1;strokeColor=none;fillColor=none;fontSize=11;" parent="1" vertex="1">
          <mxGeometry x="-69" y="-378" width="40" height="30" as="geometry" />
        </mxCell>
        <mxCell id="_OX-JBq8yyOv4rNZ1e_I-276" value="hora" style="text;html=1;align=center;verticalAlign=middle;resizable=0;points=[];autosize=1;strokeColor=none;fillColor=none;fontSize=11;" parent="1" vertex="1">
          <mxGeometry x="-74" y="-355" width="50" height="30" as="geometry" />
        </mxCell>
        <mxCell id="_OX-JBq8yyOv4rNZ1e_I-280" value="Substituicao" style="shape=table;startSize=30;container=1;collapsible=1;childLayout=tableLayout;fixedRows=1;rowLines=0;fontStyle=1;align=center;resizeLast=1;html=1;" parent="1" vertex="1">
          <mxGeometry x="782" y="660" width="180" height="150" as="geometry" />
        </mxCell>
        <mxCell id="_OX-JBq8yyOv4rNZ1e_I-281" value="" style="shape=tableRow;horizontal=0;startSize=0;swimlaneHead=0;swimlaneBody=0;fillColor=none;collapsible=0;dropTarget=0;points=[[0,0.5],[1,0.5]];portConstraint=eastwest;top=0;left=0;right=0;bottom=1;" parent="_OX-JBq8yyOv4rNZ1e_I-280" vertex="1">
          <mxGeometry y="30" width="180" height="30" as="geometry" />
        </mxCell>
        <mxCell id="_OX-JBq8yyOv4rNZ1e_I-282" value="PK" style="shape=partialRectangle;connectable=0;fillColor=none;top=0;left=0;bottom=0;right=0;fontStyle=1;overflow=hidden;whiteSpace=wrap;html=1;" parent="_OX-JBq8yyOv4rNZ1e_I-281" vertex="1">
          <mxGeometry width="30" height="30" as="geometry">
            <mxRectangle width="30" height="30" as="alternateBounds" />
          </mxGeometry>
        </mxCell>
        <mxCell id="_OX-JBq8yyOv4rNZ1e_I-283" value="idSubstituicao" style="shape=partialRectangle;connectable=0;fillColor=none;top=0;left=0;bottom=0;right=0;align=left;spacingLeft=6;fontStyle=5;overflow=hidden;whiteSpace=wrap;html=1;" parent="_OX-JBq8yyOv4rNZ1e_I-281" vertex="1">
          <mxGeometry x="30" width="150" height="30" as="geometry">
            <mxRectangle width="150" height="30" as="alternateBounds" />
          </mxGeometry>
        </mxCell>
        <mxCell id="_OX-JBq8yyOv4rNZ1e_I-284" value="" style="shape=tableRow;horizontal=0;startSize=0;swimlaneHead=0;swimlaneBody=0;fillColor=none;collapsible=0;dropTarget=0;points=[[0,0.5],[1,0.5]];portConstraint=eastwest;top=0;left=0;right=0;bottom=0;" parent="_OX-JBq8yyOv4rNZ1e_I-280" vertex="1">
          <mxGeometry y="60" width="180" height="30" as="geometry" />
        </mxCell>
        <mxCell id="_OX-JBq8yyOv4rNZ1e_I-285" value="" style="shape=partialRectangle;connectable=0;fillColor=none;top=0;left=0;bottom=0;right=0;editable=1;overflow=hidden;whiteSpace=wrap;html=1;" parent="_OX-JBq8yyOv4rNZ1e_I-284" vertex="1">
          <mxGeometry width="30" height="30" as="geometry">
            <mxRectangle width="30" height="30" as="alternateBounds" />
          </mxGeometry>
        </mxCell>
        <mxCell id="_OX-JBq8yyOv4rNZ1e_I-286" value="data" style="shape=partialRectangle;connectable=0;fillColor=none;top=0;left=0;bottom=0;right=0;align=left;spacingLeft=6;overflow=hidden;whiteSpace=wrap;html=1;" parent="_OX-JBq8yyOv4rNZ1e_I-284" vertex="1">
          <mxGeometry x="30" width="150" height="30" as="geometry">
            <mxRectangle width="150" height="30" as="alternateBounds" />
          </mxGeometry>
        </mxCell>
        <mxCell id="_OX-JBq8yyOv4rNZ1e_I-287" value="" style="shape=tableRow;horizontal=0;startSize=0;swimlaneHead=0;swimlaneBody=0;fillColor=none;collapsible=0;dropTarget=0;points=[[0,0.5],[1,0.5]];portConstraint=eastwest;top=0;left=0;right=0;bottom=0;" parent="_OX-JBq8yyOv4rNZ1e_I-280" vertex="1">
          <mxGeometry y="90" width="180" height="30" as="geometry" />
        </mxCell>
        <mxCell id="_OX-JBq8yyOv4rNZ1e_I-288" value="" style="shape=partialRectangle;connectable=0;fillColor=none;top=0;left=0;bottom=0;right=0;editable=1;overflow=hidden;whiteSpace=wrap;html=1;" parent="_OX-JBq8yyOv4rNZ1e_I-287" vertex="1">
          <mxGeometry width="30" height="30" as="geometry">
            <mxRectangle width="30" height="30" as="alternateBounds" />
          </mxGeometry>
        </mxCell>
        <mxCell id="_OX-JBq8yyOv4rNZ1e_I-289" value="minuto" style="shape=partialRectangle;connectable=0;fillColor=none;top=0;left=0;bottom=0;right=0;align=left;spacingLeft=6;overflow=hidden;whiteSpace=wrap;html=1;" parent="_OX-JBq8yyOv4rNZ1e_I-287" vertex="1">
          <mxGeometry x="30" width="150" height="30" as="geometry">
            <mxRectangle width="150" height="30" as="alternateBounds" />
          </mxGeometry>
        </mxCell>
        <mxCell id="Dixffc02YmFAOPlYMuIK-16" style="shape=tableRow;horizontal=0;startSize=0;swimlaneHead=0;swimlaneBody=0;fillColor=none;collapsible=0;dropTarget=0;points=[[0,0.5],[1,0.5]];portConstraint=eastwest;top=0;left=0;right=0;bottom=0;" parent="_OX-JBq8yyOv4rNZ1e_I-280" vertex="1">
          <mxGeometry y="120" width="180" height="30" as="geometry" />
        </mxCell>
        <mxCell id="Dixffc02YmFAOPlYMuIK-17" value="FK" style="shape=partialRectangle;connectable=0;fillColor=none;top=0;left=0;bottom=0;right=0;editable=1;overflow=hidden;whiteSpace=wrap;html=1;" parent="Dixffc02YmFAOPlYMuIK-16" vertex="1">
          <mxGeometry width="30" height="30" as="geometry">
            <mxRectangle width="30" height="30" as="alternateBounds" />
          </mxGeometry>
        </mxCell>
        <mxCell id="Dixffc02YmFAOPlYMuIK-18" value="idJogo" style="shape=partialRectangle;connectable=0;fillColor=none;top=0;left=0;bottom=0;right=0;align=left;spacingLeft=6;overflow=hidden;whiteSpace=wrap;html=1;" parent="Dixffc02YmFAOPlYMuIK-16" vertex="1">
          <mxGeometry x="30" width="150" height="30" as="geometry">
            <mxRectangle width="150" height="30" as="alternateBounds" />
          </mxGeometry>
        </mxCell>
        <mxCell id="_OX-JBq8yyOv4rNZ1e_I-290" value="PosicaoJogo" style="shape=table;startSize=30;container=1;collapsible=1;childLayout=tableLayout;fixedRows=1;rowLines=0;fontStyle=1;align=center;resizeLast=1;html=1;" parent="1" vertex="1">
          <mxGeometry x="-95" y="920" width="180" height="120" as="geometry" />
        </mxCell>
        <mxCell id="_OX-JBq8yyOv4rNZ1e_I-291" value="" style="shape=tableRow;horizontal=0;startSize=0;swimlaneHead=0;swimlaneBody=0;fillColor=none;collapsible=0;dropTarget=0;points=[[0,0.5],[1,0.5]];portConstraint=eastwest;top=0;left=0;right=0;bottom=1;" parent="_OX-JBq8yyOv4rNZ1e_I-290" vertex="1">
          <mxGeometry y="30" width="180" height="30" as="geometry" />
        </mxCell>
        <mxCell id="_OX-JBq8yyOv4rNZ1e_I-292" value="PK" style="shape=partialRectangle;connectable=0;fillColor=none;top=0;left=0;bottom=0;right=0;fontStyle=1;overflow=hidden;whiteSpace=wrap;html=1;" parent="_OX-JBq8yyOv4rNZ1e_I-291" vertex="1">
          <mxGeometry width="30" height="30" as="geometry">
            <mxRectangle width="30" height="30" as="alternateBounds" />
          </mxGeometry>
        </mxCell>
        <mxCell id="_OX-JBq8yyOv4rNZ1e_I-293" value="idPosicao" style="shape=partialRectangle;connectable=0;fillColor=none;top=0;left=0;bottom=0;right=0;align=left;spacingLeft=6;fontStyle=5;overflow=hidden;whiteSpace=wrap;html=1;" parent="_OX-JBq8yyOv4rNZ1e_I-291" vertex="1">
          <mxGeometry x="30" width="150" height="30" as="geometry">
            <mxRectangle width="150" height="30" as="alternateBounds" />
          </mxGeometry>
        </mxCell>
        <mxCell id="_OX-JBq8yyOv4rNZ1e_I-294" value="" style="shape=tableRow;horizontal=0;startSize=0;swimlaneHead=0;swimlaneBody=0;fillColor=none;collapsible=0;dropTarget=0;points=[[0,0.5],[1,0.5]];portConstraint=eastwest;top=0;left=0;right=0;bottom=0;" parent="_OX-JBq8yyOv4rNZ1e_I-290" vertex="1">
          <mxGeometry y="60" width="180" height="30" as="geometry" />
        </mxCell>
        <mxCell id="_OX-JBq8yyOv4rNZ1e_I-295" value="" style="shape=partialRectangle;connectable=0;fillColor=none;top=0;left=0;bottom=0;right=0;editable=1;overflow=hidden;whiteSpace=wrap;html=1;" parent="_OX-JBq8yyOv4rNZ1e_I-294" vertex="1">
          <mxGeometry width="30" height="30" as="geometry">
            <mxRectangle width="30" height="30" as="alternateBounds" />
          </mxGeometry>
        </mxCell>
        <mxCell id="_OX-JBq8yyOv4rNZ1e_I-296" value="nome" style="shape=partialRectangle;connectable=0;fillColor=none;top=0;left=0;bottom=0;right=0;align=left;spacingLeft=6;overflow=hidden;whiteSpace=wrap;html=1;" parent="_OX-JBq8yyOv4rNZ1e_I-294" vertex="1">
          <mxGeometry x="30" width="150" height="30" as="geometry">
            <mxRectangle width="150" height="30" as="alternateBounds" />
          </mxGeometry>
        </mxCell>
        <mxCell id="_OX-JBq8yyOv4rNZ1e_I-297" value="" style="shape=tableRow;horizontal=0;startSize=0;swimlaneHead=0;swimlaneBody=0;fillColor=none;collapsible=0;dropTarget=0;points=[[0,0.5],[1,0.5]];portConstraint=eastwest;top=0;left=0;right=0;bottom=0;" parent="_OX-JBq8yyOv4rNZ1e_I-290" vertex="1">
          <mxGeometry y="90" width="180" height="30" as="geometry" />
        </mxCell>
        <mxCell id="_OX-JBq8yyOv4rNZ1e_I-298" value="" style="shape=partialRectangle;connectable=0;fillColor=none;top=0;left=0;bottom=0;right=0;editable=1;overflow=hidden;whiteSpace=wrap;html=1;" parent="_OX-JBq8yyOv4rNZ1e_I-297" vertex="1">
          <mxGeometry width="30" height="30" as="geometry">
            <mxRectangle width="30" height="30" as="alternateBounds" />
          </mxGeometry>
        </mxCell>
        <mxCell id="_OX-JBq8yyOv4rNZ1e_I-299" value="" style="shape=partialRectangle;connectable=0;fillColor=none;top=0;left=0;bottom=0;right=0;align=left;spacingLeft=6;overflow=hidden;whiteSpace=wrap;html=1;" parent="_OX-JBq8yyOv4rNZ1e_I-297" vertex="1">
          <mxGeometry x="30" width="150" height="30" as="geometry">
            <mxRectangle width="150" height="30" as="alternateBounds" />
          </mxGeometry>
        </mxCell>
        <mxCell id="_OX-JBq8yyOv4rNZ1e_I-305" value="Jogador_Historico_Equipa" style="shape=table;startSize=30;container=1;collapsible=1;childLayout=tableLayout;fixedRows=1;rowLines=0;fontStyle=1;align=center;resizeLast=1;html=1;whiteSpace=wrap;" parent="1" vertex="1">
          <mxGeometry x="215" y="540" width="180" height="150" as="geometry" />
        </mxCell>
        <mxCell id="_OX-JBq8yyOv4rNZ1e_I-306" value="" style="shape=tableRow;horizontal=0;startSize=0;swimlaneHead=0;swimlaneBody=0;fillColor=none;collapsible=0;dropTarget=0;points=[[0,0.5],[1,0.5]];portConstraint=eastwest;top=0;left=0;right=0;bottom=0;html=1;" parent="_OX-JBq8yyOv4rNZ1e_I-305" vertex="1">
          <mxGeometry y="30" width="180" height="30" as="geometry" />
        </mxCell>
        <mxCell id="_OX-JBq8yyOv4rNZ1e_I-307" value="PK,FK1" style="shape=partialRectangle;connectable=0;fillColor=none;top=0;left=0;bottom=0;right=0;fontStyle=1;overflow=hidden;html=1;whiteSpace=wrap;" parent="_OX-JBq8yyOv4rNZ1e_I-306" vertex="1">
          <mxGeometry width="60" height="30" as="geometry">
            <mxRectangle width="60" height="30" as="alternateBounds" />
          </mxGeometry>
        </mxCell>
        <mxCell id="_OX-JBq8yyOv4rNZ1e_I-308" value="idEquipa" style="shape=partialRectangle;connectable=0;fillColor=none;top=0;left=0;bottom=0;right=0;align=left;spacingLeft=6;fontStyle=5;overflow=hidden;html=1;whiteSpace=wrap;" parent="_OX-JBq8yyOv4rNZ1e_I-306" vertex="1">
          <mxGeometry x="60" width="120" height="30" as="geometry">
            <mxRectangle width="120" height="30" as="alternateBounds" />
          </mxGeometry>
        </mxCell>
        <mxCell id="_OX-JBq8yyOv4rNZ1e_I-309" value="" style="shape=tableRow;horizontal=0;startSize=0;swimlaneHead=0;swimlaneBody=0;fillColor=none;collapsible=0;dropTarget=0;points=[[0,0.5],[1,0.5]];portConstraint=eastwest;top=0;left=0;right=0;bottom=1;html=1;" parent="_OX-JBq8yyOv4rNZ1e_I-305" vertex="1">
          <mxGeometry y="60" width="180" height="30" as="geometry" />
        </mxCell>
        <mxCell id="_OX-JBq8yyOv4rNZ1e_I-310" value="PK,FK2" style="shape=partialRectangle;connectable=0;fillColor=none;top=0;left=0;bottom=0;right=0;fontStyle=1;overflow=hidden;html=1;whiteSpace=wrap;" parent="_OX-JBq8yyOv4rNZ1e_I-309" vertex="1">
          <mxGeometry width="60" height="30" as="geometry">
            <mxRectangle width="60" height="30" as="alternateBounds" />
          </mxGeometry>
        </mxCell>
        <mxCell id="_OX-JBq8yyOv4rNZ1e_I-311" value="idJogador" style="shape=partialRectangle;connectable=0;fillColor=none;top=0;left=0;bottom=0;right=0;align=left;spacingLeft=6;fontStyle=5;overflow=hidden;html=1;whiteSpace=wrap;" parent="_OX-JBq8yyOv4rNZ1e_I-309" vertex="1">
          <mxGeometry x="60" width="120" height="30" as="geometry">
            <mxRectangle width="120" height="30" as="alternateBounds" />
          </mxGeometry>
        </mxCell>
        <mxCell id="_OX-JBq8yyOv4rNZ1e_I-312" value="" style="shape=tableRow;horizontal=0;startSize=0;swimlaneHead=0;swimlaneBody=0;fillColor=none;collapsible=0;dropTarget=0;points=[[0,0.5],[1,0.5]];portConstraint=eastwest;top=0;left=0;right=0;bottom=0;html=1;" parent="_OX-JBq8yyOv4rNZ1e_I-305" vertex="1">
          <mxGeometry y="90" width="180" height="30" as="geometry" />
        </mxCell>
        <mxCell id="_OX-JBq8yyOv4rNZ1e_I-313" value="" style="shape=partialRectangle;connectable=0;fillColor=none;top=0;left=0;bottom=0;right=0;editable=1;overflow=hidden;html=1;whiteSpace=wrap;" parent="_OX-JBq8yyOv4rNZ1e_I-312" vertex="1">
          <mxGeometry width="60" height="30" as="geometry">
            <mxRectangle width="60" height="30" as="alternateBounds" />
          </mxGeometry>
        </mxCell>
        <mxCell id="_OX-JBq8yyOv4rNZ1e_I-314" value="data_entrada" style="shape=partialRectangle;connectable=0;fillColor=none;top=0;left=0;bottom=0;right=0;align=left;spacingLeft=6;overflow=hidden;html=1;whiteSpace=wrap;" parent="_OX-JBq8yyOv4rNZ1e_I-312" vertex="1">
          <mxGeometry x="60" width="120" height="30" as="geometry">
            <mxRectangle width="120" height="30" as="alternateBounds" />
          </mxGeometry>
        </mxCell>
        <mxCell id="_OX-JBq8yyOv4rNZ1e_I-315" value="" style="shape=tableRow;horizontal=0;startSize=0;swimlaneHead=0;swimlaneBody=0;fillColor=none;collapsible=0;dropTarget=0;points=[[0,0.5],[1,0.5]];portConstraint=eastwest;top=0;left=0;right=0;bottom=0;html=1;" parent="_OX-JBq8yyOv4rNZ1e_I-305" vertex="1">
          <mxGeometry y="120" width="180" height="30" as="geometry" />
        </mxCell>
        <mxCell id="_OX-JBq8yyOv4rNZ1e_I-316" value="" style="shape=partialRectangle;connectable=0;fillColor=none;top=0;left=0;bottom=0;right=0;editable=1;overflow=hidden;html=1;whiteSpace=wrap;" parent="_OX-JBq8yyOv4rNZ1e_I-315" vertex="1">
          <mxGeometry width="60" height="30" as="geometry">
            <mxRectangle width="60" height="30" as="alternateBounds" />
          </mxGeometry>
        </mxCell>
        <mxCell id="_OX-JBq8yyOv4rNZ1e_I-317" value="data_saida" style="shape=partialRectangle;connectable=0;fillColor=none;top=0;left=0;bottom=0;right=0;align=left;spacingLeft=6;overflow=hidden;html=1;whiteSpace=wrap;" parent="_OX-JBq8yyOv4rNZ1e_I-315" vertex="1">
          <mxGeometry x="60" width="120" height="30" as="geometry">
            <mxRectangle width="120" height="30" as="alternateBounds" />
          </mxGeometry>
        </mxCell>
        <mxCell id="_OX-JBq8yyOv4rNZ1e_I-323" value="" style="edgeStyle=entityRelationEdgeStyle;fontSize=12;html=1;endArrow=ERoneToMany;rounded=0;exitX=0.989;exitY=0.767;exitDx=0;exitDy=0;exitPerimeter=0;entryX=0;entryY=0.3;entryDx=0;entryDy=0;entryPerimeter=0;startArrow=ERone;startFill=0;" parent="1" source="_OX-JBq8yyOv4rNZ1e_I-251" target="_OX-JBq8yyOv4rNZ1e_I-306" edge="1">
          <mxGeometry width="100" height="100" relative="1" as="geometry">
            <mxPoint x="440" y="727" as="sourcePoint" />
            <mxPoint x="540" y="627" as="targetPoint" />
          </mxGeometry>
        </mxCell>
        <mxCell id="_OX-JBq8yyOv4rNZ1e_I-324" value="" style="edgeStyle=entityRelationEdgeStyle;fontSize=12;html=1;endArrow=ERoneToMany;rounded=0;exitX=1;exitY=0.5;exitDx=0;exitDy=0;entryX=0;entryY=0.5;entryDx=0;entryDy=0;startArrow=ERone;startFill=0;" parent="1" source="_OX-JBq8yyOv4rNZ1e_I-225" target="_OX-JBq8yyOv4rNZ1e_I-309" edge="1">
          <mxGeometry width="100" height="100" relative="1" as="geometry">
            <mxPoint x="440" y="727" as="sourcePoint" />
            <mxPoint x="540" y="627" as="targetPoint" />
          </mxGeometry>
        </mxCell>
        <mxCell id="_OX-JBq8yyOv4rNZ1e_I-325" value="" style="endArrow=ERmany;html=1;rounded=0;startArrow=ERone;startFill=0;endFill=0;entryX=0;entryY=0.5;entryDx=0;entryDy=0;exitX=0;exitY=0.5;exitDx=0;exitDy=0;" parent="1" source="_OX-JBq8yyOv4rNZ1e_I-291" target="_OX-JBq8yyOv4rNZ1e_I-326" edge="1">
          <mxGeometry width="50" height="50" relative="1" as="geometry">
            <mxPoint x="-100" y="1017" as="sourcePoint" />
            <mxPoint x="-100" y="777" as="targetPoint" />
            <Array as="points">
              <mxPoint x="-180" y="965" />
              <mxPoint x="-180" y="952" />
              <mxPoint x="-180" y="887" />
              <mxPoint x="-180" y="845" />
            </Array>
          </mxGeometry>
        </mxCell>
        <mxCell id="_OX-JBq8yyOv4rNZ1e_I-330" style="edgeStyle=orthogonalEdgeStyle;rounded=0;orthogonalLoop=1;jettySize=auto;html=1;entryX=0;entryY=0.5;entryDx=0;entryDy=0;startArrow=ERone;startFill=0;endArrow=ERone;endFill=0;" parent="1" source="_OX-JBq8yyOv4rNZ1e_I-172" target="_OX-JBq8yyOv4rNZ1e_I-300" edge="1">
          <mxGeometry relative="1" as="geometry">
            <Array as="points">
              <mxPoint x="-190" y="266" />
              <mxPoint x="-190" y="552" />
            </Array>
          </mxGeometry>
        </mxCell>
        <mxCell id="_OX-JBq8yyOv4rNZ1e_I-331" style="edgeStyle=orthogonalEdgeStyle;rounded=0;orthogonalLoop=1;jettySize=auto;html=1;entryX=0;entryY=0.5;entryDx=0;entryDy=0;startArrow=ERone;startFill=0;endArrow=ERmany;endFill=0;exitX=0;exitY=0.5;exitDx=0;exitDy=0;" parent="1" source="_OX-JBq8yyOv4rNZ1e_I-251" target="Dixffc02YmFAOPlYMuIK-1" edge="1">
          <mxGeometry relative="1" as="geometry">
            <mxPoint x="-91" y="517" as="sourcePoint" />
            <mxPoint x="-90" y="731" as="targetPoint" />
            <Array as="points">
              <mxPoint x="-161" y="492" />
              <mxPoint x="-161" y="875" />
            </Array>
          </mxGeometry>
        </mxCell>
        <mxCell id="_OX-JBq8yyOv4rNZ1e_I-333" value="Equipa_jogo" style="shape=table;startSize=30;container=1;collapsible=1;childLayout=tableLayout;fixedRows=1;rowLines=0;fontStyle=1;align=center;resizeLast=1;html=1;whiteSpace=wrap;" parent="1" vertex="1">
          <mxGeometry x="171" y="250" width="180" height="90" as="geometry" />
        </mxCell>
        <mxCell id="_OX-JBq8yyOv4rNZ1e_I-334" value="" style="shape=tableRow;horizontal=0;startSize=0;swimlaneHead=0;swimlaneBody=0;fillColor=none;collapsible=0;dropTarget=0;points=[[0,0.5],[1,0.5]];portConstraint=eastwest;top=0;left=0;right=0;bottom=0;html=1;" parent="_OX-JBq8yyOv4rNZ1e_I-333" vertex="1">
          <mxGeometry y="30" width="180" height="30" as="geometry" />
        </mxCell>
        <mxCell id="_OX-JBq8yyOv4rNZ1e_I-335" value="PK,FK1" style="shape=partialRectangle;connectable=0;fillColor=none;top=0;left=0;bottom=0;right=0;fontStyle=1;overflow=hidden;html=1;whiteSpace=wrap;" parent="_OX-JBq8yyOv4rNZ1e_I-334" vertex="1">
          <mxGeometry width="60" height="30" as="geometry">
            <mxRectangle width="60" height="30" as="alternateBounds" />
          </mxGeometry>
        </mxCell>
        <mxCell id="_OX-JBq8yyOv4rNZ1e_I-336" value="idEquipa" style="shape=partialRectangle;connectable=0;fillColor=none;top=0;left=0;bottom=0;right=0;align=left;spacingLeft=6;fontStyle=5;overflow=hidden;html=1;whiteSpace=wrap;" parent="_OX-JBq8yyOv4rNZ1e_I-334" vertex="1">
          <mxGeometry x="60" width="120" height="30" as="geometry">
            <mxRectangle width="120" height="30" as="alternateBounds" />
          </mxGeometry>
        </mxCell>
        <mxCell id="_OX-JBq8yyOv4rNZ1e_I-337" value="" style="shape=tableRow;horizontal=0;startSize=0;swimlaneHead=0;swimlaneBody=0;fillColor=none;collapsible=0;dropTarget=0;points=[[0,0.5],[1,0.5]];portConstraint=eastwest;top=0;left=0;right=0;bottom=1;html=1;" parent="_OX-JBq8yyOv4rNZ1e_I-333" vertex="1">
          <mxGeometry y="60" width="180" height="30" as="geometry" />
        </mxCell>
        <mxCell id="_OX-JBq8yyOv4rNZ1e_I-338" value="PK,FK2" style="shape=partialRectangle;connectable=0;fillColor=none;top=0;left=0;bottom=0;right=0;fontStyle=1;overflow=hidden;html=1;whiteSpace=wrap;" parent="_OX-JBq8yyOv4rNZ1e_I-337" vertex="1">
          <mxGeometry width="60" height="30" as="geometry">
            <mxRectangle width="60" height="30" as="alternateBounds" />
          </mxGeometry>
        </mxCell>
        <mxCell id="_OX-JBq8yyOv4rNZ1e_I-339" value="idJogo" style="shape=partialRectangle;connectable=0;fillColor=none;top=0;left=0;bottom=0;right=0;align=left;spacingLeft=6;fontStyle=5;overflow=hidden;html=1;whiteSpace=wrap;" parent="_OX-JBq8yyOv4rNZ1e_I-337" vertex="1">
          <mxGeometry x="60" width="120" height="30" as="geometry">
            <mxRectangle width="120" height="30" as="alternateBounds" />
          </mxGeometry>
        </mxCell>
        <mxCell id="_OX-JBq8yyOv4rNZ1e_I-332" value="" style="edgeStyle=entityRelationEdgeStyle;fontSize=12;html=1;endArrow=ERoneToMany;rounded=0;entryX=0;entryY=0.5;entryDx=0;entryDy=0;exitX=1.006;exitY=0.267;exitDx=0;exitDy=0;exitPerimeter=0;startArrow=ERone;startFill=0;" parent="1" source="_OX-JBq8yyOv4rNZ1e_I-251" target="_OX-JBq8yyOv4rNZ1e_I-334" edge="1">
          <mxGeometry width="100" height="100" relative="1" as="geometry">
            <mxPoint x="280" y="510" as="sourcePoint" />
            <mxPoint x="180" y="350" as="targetPoint" />
          </mxGeometry>
        </mxCell>
        <mxCell id="_OX-JBq8yyOv4rNZ1e_I-346" value="" style="edgeStyle=entityRelationEdgeStyle;fontSize=12;html=1;endArrow=ERoneToMany;rounded=0;entryX=1;entryY=0.5;entryDx=0;entryDy=0;exitX=0;exitY=0.5;exitDx=0;exitDy=0;startArrow=ERone;startFill=0;" parent="1" source="_OX-JBq8yyOv4rNZ1e_I-186" target="_OX-JBq8yyOv4rNZ1e_I-337" edge="1">
          <mxGeometry width="100" height="100" relative="1" as="geometry">
            <mxPoint x="550" y="460" as="sourcePoint" />
            <mxPoint x="450" y="560" as="targetPoint" />
          </mxGeometry>
        </mxCell>
        <mxCell id="_OX-JBq8yyOv4rNZ1e_I-347" value="" style="edgeStyle=entityRelationEdgeStyle;fontSize=12;html=1;endArrow=ERoneToMany;rounded=0;exitX=0.006;exitY=0.3;exitDx=0;exitDy=0;exitPerimeter=0;entryX=1;entryY=0.5;entryDx=0;entryDy=0;startArrow=ERone;startFill=0;" parent="1" source="_OX-JBq8yyOv4rNZ1e_I-212" target="Dixffc02YmFAOPlYMuIK-13" edge="1">
          <mxGeometry width="100" height="100" relative="1" as="geometry">
            <mxPoint x="660" y="210" as="sourcePoint" />
            <mxPoint x="450" y="320" as="targetPoint" />
          </mxGeometry>
        </mxCell>
        <mxCell id="_OX-JBq8yyOv4rNZ1e_I-350" value="" style="edgeStyle=entityRelationEdgeStyle;fontSize=12;html=1;endArrow=ERoneToMany;rounded=0;entryX=0;entryY=0.5;entryDx=0;entryDy=0;exitX=1;exitY=0.5;exitDx=0;exitDy=0;startArrow=ERone;startFill=0;" parent="1" source="_OX-JBq8yyOv4rNZ1e_I-186" target="Dixffc02YmFAOPlYMuIK-16" edge="1">
          <mxGeometry width="100" height="100" relative="1" as="geometry">
            <mxPoint x="450" y="280" as="sourcePoint" />
            <mxPoint x="550" y="180" as="targetPoint" />
          </mxGeometry>
        </mxCell>
        <mxCell id="_OX-JBq8yyOv4rNZ1e_I-354" value="" style="edgeStyle=entityRelationEdgeStyle;fontSize=12;html=1;endArrow=ERoneToMany;rounded=0;exitX=1;exitY=0.5;exitDx=0;exitDy=0;entryX=0;entryY=0.5;entryDx=0;entryDy=0;startArrow=ERone;startFill=0;" parent="1" source="_OX-JBq8yyOv4rNZ1e_I-186" target="_OX-JBq8yyOv4rNZ1e_I-208" edge="1">
          <mxGeometry width="100" height="100" relative="1" as="geometry">
            <mxPoint x="950" y="570" as="sourcePoint" />
            <mxPoint x="1050" y="470" as="targetPoint" />
          </mxGeometry>
        </mxCell>
        <mxCell id="m8FWC069CCOMlwwMVzGk-4" value="Nacionalidade" style="rounded=1;arcSize=10;whiteSpace=wrap;html=1;align=center;" parent="1" vertex="1">
          <mxGeometry x="342" y="-1044" width="100" height="40" as="geometry" />
        </mxCell>
        <mxCell id="m8FWC069CCOMlwwMVzGk-5" value="idNacionalidade" style="text;html=1;align=center;verticalAlign=middle;resizable=0;points=[];autosize=1;strokeColor=none;fillColor=none;" parent="1" vertex="1">
          <mxGeometry x="337" y="-1077.87" width="110" height="30" as="geometry" />
        </mxCell>
        <mxCell id="m8FWC069CCOMlwwMVzGk-7" value="Equipa" style="rounded=1;arcSize=10;whiteSpace=wrap;html=1;align=center;" parent="1" vertex="1">
          <mxGeometry x="-350" y="-662" width="100" height="40" as="geometry" />
        </mxCell>
        <mxCell id="m8FWC069CCOMlwwMVzGk-8" value="Treinador" style="rounded=1;arcSize=10;whiteSpace=wrap;html=1;align=center;" parent="1" vertex="1">
          <mxGeometry x="-375" y="-1044" width="100" height="40" as="geometry" />
        </mxCell>
        <mxCell id="m8FWC069CCOMlwwMVzGk-9" value="" style="endArrow=none;html=1;rounded=0;entryX=0.5;entryY=1;entryDx=0;entryDy=0;exitX=0.5;exitY=0;exitDx=0;exitDy=0;" parent="1" source="m8FWC069CCOMlwwMVzGk-26" target="m8FWC069CCOMlwwMVzGk-8" edge="1">
          <mxGeometry width="50" height="50" relative="1" as="geometry">
            <mxPoint x="-75" y="-507.75" as="sourcePoint" />
            <mxPoint x="-25" y="-557.75" as="targetPoint" />
          </mxGeometry>
        </mxCell>
        <mxCell id="m8FWC069CCOMlwwMVzGk-11" value="1" style="edgeLabel;html=1;align=center;verticalAlign=middle;resizable=0;points=[];" parent="m8FWC069CCOMlwwMVzGk-9" vertex="1" connectable="0">
          <mxGeometry x="0.6365" y="-2" relative="1" as="geometry">
            <mxPoint x="8" y="-19" as="offset" />
          </mxGeometry>
        </mxCell>
        <mxCell id="m8FWC069CCOMlwwMVzGk-13" value="idTreinador" style="text;html=1;align=center;verticalAlign=middle;resizable=0;points=[];autosize=1;strokeColor=none;fillColor=none;" parent="1" vertex="1">
          <mxGeometry x="-375" y="-1120" width="80" height="30" as="geometry" />
        </mxCell>
        <mxCell id="m8FWC069CCOMlwwMVzGk-14" value="nome" style="text;html=1;align=center;verticalAlign=middle;resizable=0;points=[];autosize=1;strokeColor=none;fillColor=none;" parent="1" vertex="1">
          <mxGeometry x="-375" y="-1107.87" width="50" height="30" as="geometry" />
        </mxCell>
        <mxCell id="m8FWC069CCOMlwwMVzGk-15" value="numLicença" style="text;html=1;align=center;verticalAlign=middle;resizable=0;points=[];autosize=1;strokeColor=none;fillColor=none;" parent="1" vertex="1">
          <mxGeometry x="-380" y="-1091" width="90" height="30" as="geometry" />
        </mxCell>
        <mxCell id="m8FWC069CCOMlwwMVzGk-16" value="dataNascimento" style="text;html=1;align=center;verticalAlign=middle;resizable=0;points=[];autosize=1;strokeColor=none;fillColor=none;" parent="1" vertex="1">
          <mxGeometry x="-380" y="-1074" width="110" height="30" as="geometry" />
        </mxCell>
        <mxCell id="m8FWC069CCOMlwwMVzGk-21" value="idEquipa" style="text;html=1;align=center;verticalAlign=middle;resizable=0;points=[];autosize=1;strokeColor=none;fillColor=none;" parent="1" vertex="1">
          <mxGeometry x="-425" y="-645.5" width="70" height="30" as="geometry" />
        </mxCell>
        <mxCell id="m8FWC069CCOMlwwMVzGk-22" value="nome" style="text;html=1;align=center;verticalAlign=middle;resizable=0;points=[];autosize=1;strokeColor=none;fillColor=none;" parent="1" vertex="1">
          <mxGeometry x="-425" y="-663" width="50" height="30" as="geometry" />
        </mxCell>
        <mxCell id="m8FWC069CCOMlwwMVzGk-26" value="tem" style="rhombus;whiteSpace=wrap;html=1;" parent="1" vertex="1">
          <mxGeometry x="-350" y="-810" width="50" height="55" as="geometry" />
        </mxCell>
        <mxCell id="m8FWC069CCOMlwwMVzGk-27" value="" style="endArrow=none;html=1;rounded=0;exitX=0.25;exitY=0;exitDx=0;exitDy=0;entryX=0.5;entryY=1;entryDx=0;entryDy=0;" parent="1" source="m8FWC069CCOMlwwMVzGk-7" target="m8FWC069CCOMlwwMVzGk-26" edge="1">
          <mxGeometry width="50" height="50" relative="1" as="geometry">
            <mxPoint x="-75" y="-657.75" as="sourcePoint" />
            <mxPoint x="-25" y="-707.75" as="targetPoint" />
          </mxGeometry>
        </mxCell>
        <mxCell id="m8FWC069CCOMlwwMVzGk-28" value="Estádio" style="rounded=1;arcSize=10;whiteSpace=wrap;html=1;align=center;" parent="1" vertex="1">
          <mxGeometry x="-400" y="-418" width="100" height="40" as="geometry" />
        </mxCell>
        <mxCell id="m8FWC069CCOMlwwMVzGk-29" value="Jogo" style="rounded=1;arcSize=10;whiteSpace=wrap;html=1;align=center;" parent="1" vertex="1">
          <mxGeometry x="-91" y="-330" width="95" height="40" as="geometry" />
        </mxCell>
        <mxCell id="m8FWC069CCOMlwwMVzGk-30" value="Jogador" style="rounded=1;arcSize=10;whiteSpace=wrap;html=1;align=center;" parent="1" vertex="1">
          <mxGeometry x="-71" y="-662" width="100" height="40" as="geometry" />
        </mxCell>
        <mxCell id="m8FWC069CCOMlwwMVzGk-31" value="Substituição" style="rounded=1;arcSize=10;whiteSpace=wrap;html=1;align=center;" parent="1" vertex="1">
          <mxGeometry x="-96" y="-517" width="100" height="40" as="geometry" />
        </mxCell>
        <mxCell id="m8FWC069CCOMlwwMVzGk-32" value="Arbitro" style="rounded=1;arcSize=10;whiteSpace=wrap;html=1;align=center;" parent="1" vertex="1">
          <mxGeometry x="347" y="-260" width="100" height="40" as="geometry" />
        </mxCell>
        <mxCell id="m8FWC069CCOMlwwMVzGk-33" value="Golo" style="rounded=1;arcSize=10;whiteSpace=wrap;html=1;align=center;" parent="1" vertex="1">
          <mxGeometry x="187" y="-662" width="100" height="40" as="geometry" />
        </mxCell>
        <mxCell id="m8FWC069CCOMlwwMVzGk-34" value="Posição_jogo" style="rounded=1;arcSize=10;whiteSpace=wrap;html=1;align=center;" parent="1" vertex="1">
          <mxGeometry x="-96" y="-928" width="100" height="40" as="geometry" />
        </mxCell>
        <mxCell id="m8FWC069CCOMlwwMVzGk-35" value="tem" style="rhombus;whiteSpace=wrap;html=1;fillColor=#fff2cc;strokeColor=#d6b656;" parent="1" vertex="1">
          <mxGeometry x="-355" y="-544.5" width="60" height="60" as="geometry" />
        </mxCell>
        <mxCell id="m8FWC069CCOMlwwMVzGk-36" value="tem" style="rhombus;whiteSpace=wrap;html=1;" parent="1" vertex="1">
          <mxGeometry x="-76" y="-828" width="60" height="60" as="geometry" />
        </mxCell>
        <mxCell id="m8FWC069CCOMlwwMVzGk-37" value="tem" style="rhombus;whiteSpace=wrap;html=1;fillColor=#dae8fc;strokeColor=#6c8ebf;" parent="1" vertex="1">
          <mxGeometry x="-185" y="-662" width="60" height="60" as="geometry" />
        </mxCell>
        <mxCell id="m8FWC069CCOMlwwMVzGk-38" value="tem" style="rhombus;whiteSpace=wrap;html=1;" parent="1" vertex="1">
          <mxGeometry x="-250" y="-577" width="60" height="60" as="geometry" />
        </mxCell>
        <mxCell id="m8FWC069CCOMlwwMVzGk-39" value="tem" style="rhombus;whiteSpace=wrap;html=1;" parent="1" vertex="1">
          <mxGeometry x="207" y="-582.5" width="60" height="60" as="geometry" />
        </mxCell>
        <mxCell id="m8FWC069CCOMlwwMVzGk-40" value="tem" style="rhombus;whiteSpace=wrap;html=1;" parent="1" vertex="1">
          <mxGeometry x="-51" y="-438" width="60" height="60" as="geometry" />
        </mxCell>
        <mxCell id="m8FWC069CCOMlwwMVzGk-41" value="tem" style="rhombus;whiteSpace=wrap;html=1;fillColor=#d5e8d4;strokeColor=#82b366;" parent="1" vertex="1">
          <mxGeometry x="-73.5" y="-268" width="60" height="60" as="geometry" />
        </mxCell>
        <mxCell id="m8FWC069CCOMlwwMVzGk-42" value="tem" style="rhombus;whiteSpace=wrap;html=1;" parent="1" vertex="1">
          <mxGeometry x="75" y="-672" width="60" height="60" as="geometry" />
        </mxCell>
        <mxCell id="A9Ve7NAt99WnuOBKvE6o-98" value="" style="endArrow=none;html=1;rounded=0;exitX=0.5;exitY=1;exitDx=0;exitDy=0;entryX=0.5;entryY=0;entryDx=0;entryDy=0;" parent="1" source="m8FWC069CCOMlwwMVzGk-36" target="m8FWC069CCOMlwwMVzGk-30" edge="1">
          <mxGeometry width="50" height="50" relative="1" as="geometry">
            <mxPoint x="-77" y="-1003" as="sourcePoint" />
            <mxPoint x="-102" y="-908" as="targetPoint" />
            <Array as="points">
              <mxPoint x="-46" y="-718" />
              <mxPoint x="-21" y="-718" />
            </Array>
          </mxGeometry>
        </mxCell>
        <mxCell id="A9Ve7NAt99WnuOBKvE6o-99" value="" style="endArrow=none;html=1;rounded=0;exitX=0.5;exitY=1;exitDx=0;exitDy=0;entryX=0.5;entryY=0;entryDx=0;entryDy=0;" parent="1" source="m8FWC069CCOMlwwMVzGk-34" target="m8FWC069CCOMlwwMVzGk-36" edge="1">
          <mxGeometry width="50" height="50" relative="1" as="geometry">
            <mxPoint x="-92" y="-1038" as="sourcePoint" />
            <mxPoint x="-100" y="-996" as="targetPoint" />
          </mxGeometry>
        </mxCell>
        <mxCell id="A9Ve7NAt99WnuOBKvE6o-100" value="" style="endArrow=none;html=1;rounded=0;exitX=0;exitY=0.5;exitDx=0;exitDy=0;entryX=1;entryY=0.5;entryDx=0;entryDy=0;" parent="1" source="m8FWC069CCOMlwwMVzGk-42" target="m8FWC069CCOMlwwMVzGk-30" edge="1">
          <mxGeometry width="50" height="50" relative="1" as="geometry">
            <mxPoint x="21" y="-918" as="sourcePoint" />
            <mxPoint x="35" y="-637" as="targetPoint" />
          </mxGeometry>
        </mxCell>
        <mxCell id="A9Ve7NAt99WnuOBKvE6o-101" value="" style="endArrow=none;html=1;rounded=0;entryX=1;entryY=0.5;entryDx=0;entryDy=0;" parent="1" source="m8FWC069CCOMlwwMVzGk-33" target="m8FWC069CCOMlwwMVzGk-42" edge="1">
          <mxGeometry width="50" height="50" relative="1" as="geometry">
            <mxPoint x="205" y="-648" as="sourcePoint" />
            <mxPoint x="110" y="-748" as="targetPoint" />
          </mxGeometry>
        </mxCell>
        <mxCell id="A9Ve7NAt99WnuOBKvE6o-102" value="" style="endArrow=none;html=1;rounded=0;exitX=0;exitY=0.5;exitDx=0;exitDy=0;entryX=1;entryY=0.75;entryDx=0;entryDy=0;fillColor=#dae8fc;strokeColor=#6c8ebf;" parent="1" source="m8FWC069CCOMlwwMVzGk-37" target="m8FWC069CCOMlwwMVzGk-7" edge="1">
          <mxGeometry width="50" height="50" relative="1" as="geometry">
            <mxPoint x="-200" y="-753" as="sourcePoint" />
            <mxPoint x="-240" y="-632" as="targetPoint" />
          </mxGeometry>
        </mxCell>
        <mxCell id="A9Ve7NAt99WnuOBKvE6o-103" value="" style="endArrow=none;html=1;rounded=0;exitX=0;exitY=0.75;exitDx=0;exitDy=0;entryX=1;entryY=0.5;entryDx=0;entryDy=0;fillColor=#dae8fc;strokeColor=#6c8ebf;" parent="1" source="m8FWC069CCOMlwwMVzGk-30" target="m8FWC069CCOMlwwMVzGk-37" edge="1">
          <mxGeometry width="50" height="50" relative="1" as="geometry">
            <mxPoint x="-105" y="-635" as="sourcePoint" />
            <mxPoint x="-145" y="-640" as="targetPoint" />
          </mxGeometry>
        </mxCell>
        <mxCell id="A9Ve7NAt99WnuOBKvE6o-104" value="" style="endArrow=none;html=1;rounded=0;exitX=0;exitY=0.25;exitDx=0;exitDy=0;entryX=1;entryY=0.5;entryDx=0;entryDy=0;" parent="1" edge="1">
          <mxGeometry width="50" height="50" relative="1" as="geometry">
            <mxPoint x="-91" y="-320" as="sourcePoint" />
            <mxPoint x="-190" y="-547" as="targetPoint" />
            <Array as="points">
              <mxPoint x="-145" y="-320" />
              <mxPoint x="-190" y="-320" />
              <mxPoint x="-190" y="-368" />
            </Array>
          </mxGeometry>
        </mxCell>
        <mxCell id="A9Ve7NAt99WnuOBKvE6o-106" value="" style="endArrow=none;html=1;rounded=0;exitX=1;exitY=0.5;exitDx=0;exitDy=0;entryX=0.5;entryY=1;entryDx=0;entryDy=0;" parent="1" source="m8FWC069CCOMlwwMVzGk-29" target="m8FWC069CCOMlwwMVzGk-39" edge="1">
          <mxGeometry width="50" height="50" relative="1" as="geometry">
            <mxPoint x="-99" y="-398" as="sourcePoint" />
            <mxPoint x="-170" y="-489" as="targetPoint" />
            <Array as="points">
              <mxPoint x="237" y="-310" />
            </Array>
          </mxGeometry>
        </mxCell>
        <mxCell id="A9Ve7NAt99WnuOBKvE6o-107" value="" style="endArrow=none;html=1;rounded=0;exitX=0.5;exitY=0;exitDx=0;exitDy=0;entryX=0.5;entryY=1;entryDx=0;entryDy=0;" parent="1" source="m8FWC069CCOMlwwMVzGk-39" target="m8FWC069CCOMlwwMVzGk-33" edge="1">
          <mxGeometry width="50" height="50" relative="1" as="geometry">
            <mxPoint x="-4" y="-398" as="sourcePoint" />
            <mxPoint x="95" y="-503" as="targetPoint" />
          </mxGeometry>
        </mxCell>
        <mxCell id="A9Ve7NAt99WnuOBKvE6o-108" value="" style="endArrow=none;html=1;rounded=0;exitX=0.75;exitY=0;exitDx=0;exitDy=0;entryX=0.5;entryY=1;entryDx=0;entryDy=0;" parent="1" source="m8FWC069CCOMlwwMVzGk-29" target="m8FWC069CCOMlwwMVzGk-40" edge="1">
          <mxGeometry width="50" height="50" relative="1" as="geometry">
            <mxPoint x="-4" y="-398" as="sourcePoint" />
            <mxPoint x="95" y="-503" as="targetPoint" />
          </mxGeometry>
        </mxCell>
        <mxCell id="A9Ve7NAt99WnuOBKvE6o-109" value="" style="endArrow=none;html=1;rounded=0;exitX=0.5;exitY=0;exitDx=0;exitDy=0;entryX=0.75;entryY=1;entryDx=0;entryDy=0;" parent="1" source="m8FWC069CCOMlwwMVzGk-40" target="m8FWC069CCOMlwwMVzGk-31" edge="1">
          <mxGeometry width="50" height="50" relative="1" as="geometry">
            <mxPoint x="130" y="-388" as="sourcePoint" />
            <mxPoint x="221" y="-398" as="targetPoint" />
          </mxGeometry>
        </mxCell>
        <mxCell id="A9Ve7NAt99WnuOBKvE6o-110" value="" style="endArrow=none;html=1;rounded=0;exitX=0.5;exitY=1;exitDx=0;exitDy=0;entryX=0.5;entryY=0;entryDx=0;entryDy=0;fillColor=#d5e8d4;strokeColor=#82b366;" parent="1" source="m8FWC069CCOMlwwMVzGk-29" target="m8FWC069CCOMlwwMVzGk-41" edge="1">
          <mxGeometry width="50" height="50" relative="1" as="geometry">
            <mxPoint x="-4" y="-398" as="sourcePoint" />
            <mxPoint x="87" y="-408" as="targetPoint" />
          </mxGeometry>
        </mxCell>
        <mxCell id="A9Ve7NAt99WnuOBKvE6o-111" value="" style="endArrow=none;html=1;rounded=0;exitX=0;exitY=0.5;exitDx=0;exitDy=0;entryX=1;entryY=0.5;entryDx=0;entryDy=0;fillColor=#d5e8d4;strokeColor=#82b366;" parent="1" source="m8FWC069CCOMlwwMVzGk-32" target="m8FWC069CCOMlwwMVzGk-41" edge="1">
          <mxGeometry width="50" height="50" relative="1" as="geometry">
            <mxPoint x="-4" y="-398" as="sourcePoint" />
            <mxPoint x="90" y="-248" as="targetPoint" />
          </mxGeometry>
        </mxCell>
        <mxCell id="A9Ve7NAt99WnuOBKvE6o-114" value="tem" style="rhombus;whiteSpace=wrap;html=1;" parent="1" vertex="1">
          <mxGeometry x="367" y="-447.76" width="60" height="60" as="geometry" />
        </mxCell>
        <mxCell id="A9Ve7NAt99WnuOBKvE6o-115" value="tem" style="rhombus;whiteSpace=wrap;html=1;fillColor=#e1d5e7;strokeColor=#9673a6;" parent="1" vertex="1">
          <mxGeometry x="100" y="-938" width="60" height="60" as="geometry" />
        </mxCell>
        <mxCell id="A9Ve7NAt99WnuOBKvE6o-116" value="tem" style="rhombus;whiteSpace=wrap;html=1;" parent="1" vertex="1">
          <mxGeometry x="-74" y="-1054" width="60" height="60" as="geometry" />
        </mxCell>
        <mxCell id="A9Ve7NAt99WnuOBKvE6o-117" value="" style="endArrow=none;html=1;rounded=0;exitX=0;exitY=0.5;exitDx=0;exitDy=0;entryX=1;entryY=0.5;entryDx=0;entryDy=0;" parent="1" source="A9Ve7NAt99WnuOBKvE6o-116" target="m8FWC069CCOMlwwMVzGk-8" edge="1">
          <mxGeometry width="50" height="50" relative="1" as="geometry">
            <mxPoint x="-200" y="-1055" as="sourcePoint" />
            <mxPoint x="-298" y="-957" as="targetPoint" />
          </mxGeometry>
        </mxCell>
        <mxCell id="A9Ve7NAt99WnuOBKvE6o-118" value="" style="endArrow=none;html=1;rounded=0;exitX=0;exitY=0.5;exitDx=0;exitDy=0;entryX=1;entryY=0.5;entryDx=0;entryDy=0;" parent="1" source="m8FWC069CCOMlwwMVzGk-4" target="A9Ve7NAt99WnuOBKvE6o-116" edge="1">
          <mxGeometry width="50" height="50" relative="1" as="geometry">
            <mxPoint x="193" y="-1092" as="sourcePoint" />
            <mxPoint x="8" y="-1010" as="targetPoint" />
          </mxGeometry>
        </mxCell>
        <mxCell id="A9Ve7NAt99WnuOBKvE6o-119" value="" style="endArrow=none;html=1;rounded=0;exitX=0.25;exitY=1;exitDx=0;exitDy=0;entryX=1;entryY=0.5;entryDx=0;entryDy=0;fillColor=#e1d5e7;strokeColor=#9673a6;" parent="1" source="m8FWC069CCOMlwwMVzGk-4" target="A9Ve7NAt99WnuOBKvE6o-115" edge="1">
          <mxGeometry width="50" height="50" relative="1" as="geometry">
            <mxPoint x="352" y="-1013" as="sourcePoint" />
            <mxPoint x="-45" y="-1030" as="targetPoint" />
            <Array as="points">
              <mxPoint x="367" y="-908" />
            </Array>
          </mxGeometry>
        </mxCell>
        <mxCell id="A9Ve7NAt99WnuOBKvE6o-120" value="" style="endArrow=none;html=1;rounded=0;exitX=1;exitY=0;exitDx=0;exitDy=0;entryX=0;entryY=0.5;entryDx=0;entryDy=0;fillColor=#e1d5e7;strokeColor=#9673a6;" parent="1" source="m8FWC069CCOMlwwMVzGk-30" target="A9Ve7NAt99WnuOBKvE6o-115" edge="1">
          <mxGeometry width="50" height="50" relative="1" as="geometry">
            <mxPoint x="362" y="-1003" as="sourcePoint" />
            <mxPoint x="-35" y="-1020" as="targetPoint" />
            <Array as="points">
              <mxPoint x="29" y="-908" />
            </Array>
          </mxGeometry>
        </mxCell>
        <mxCell id="A9Ve7NAt99WnuOBKvE6o-121" value="" style="endArrow=none;html=1;rounded=0;exitX=0.5;exitY=1;exitDx=0;exitDy=0;entryX=0.5;entryY=0;entryDx=0;entryDy=0;" parent="1" source="m8FWC069CCOMlwwMVzGk-4" target="A9Ve7NAt99WnuOBKvE6o-114" edge="1">
          <mxGeometry width="50" height="50" relative="1" as="geometry">
            <mxPoint x="372" y="-993" as="sourcePoint" />
            <mxPoint x="-25" y="-1010" as="targetPoint" />
          </mxGeometry>
        </mxCell>
        <mxCell id="A9Ve7NAt99WnuOBKvE6o-122" value="" style="endArrow=none;html=1;rounded=0;exitX=0.5;exitY=1;exitDx=0;exitDy=0;" parent="1" source="A9Ve7NAt99WnuOBKvE6o-114" target="m8FWC069CCOMlwwMVzGk-32" edge="1">
          <mxGeometry width="50" height="50" relative="1" as="geometry">
            <mxPoint x="382" y="-983" as="sourcePoint" />
            <mxPoint x="-15" y="-1000" as="targetPoint" />
          </mxGeometry>
        </mxCell>
        <mxCell id="A9Ve7NAt99WnuOBKvE6o-123" value="histórico" style="rhombus;whiteSpace=wrap;html=1;" parent="1" vertex="1">
          <mxGeometry x="-185" y="-755" width="60" height="63" as="geometry" />
        </mxCell>
        <mxCell id="A9Ve7NAt99WnuOBKvE6o-124" value="" style="endArrow=none;html=1;rounded=0;entryX=1;entryY=0.5;entryDx=0;entryDy=0;exitX=0;exitY=0;exitDx=0;exitDy=0;" parent="1" source="m8FWC069CCOMlwwMVzGk-30" target="A9Ve7NAt99WnuOBKvE6o-123" edge="1">
          <mxGeometry width="50" height="50" relative="1" as="geometry">
            <mxPoint x="-105" y="-408" as="sourcePoint" />
            <mxPoint x="-170" y="-489" as="targetPoint" />
            <Array as="points">
              <mxPoint x="-71" y="-723" />
            </Array>
          </mxGeometry>
        </mxCell>
        <mxCell id="A9Ve7NAt99WnuOBKvE6o-129" value="1" style="edgeLabel;html=1;align=center;verticalAlign=middle;resizable=0;points=[];" parent="1" vertex="1" connectable="0">
          <mxGeometry x="-295.00015091045236" y="-667.4980867978635" as="geometry">
            <mxPoint x="-21" y="-3" as="offset" />
          </mxGeometry>
        </mxCell>
        <mxCell id="A9Ve7NAt99WnuOBKvE6o-132" value="N&lt;br&gt;" style="text;html=1;align=center;verticalAlign=middle;resizable=0;points=[];autosize=1;strokeColor=none;fillColor=none;" parent="1" vertex="1">
          <mxGeometry x="-101" y="-682.5" width="30" height="30" as="geometry" />
        </mxCell>
        <mxCell id="A9Ve7NAt99WnuOBKvE6o-133" value="" style="endArrow=none;html=1;rounded=0;exitX=0;exitY=0.5;exitDx=0;exitDy=0;entryX=0.75;entryY=0;entryDx=0;entryDy=0;" parent="1" source="A9Ve7NAt99WnuOBKvE6o-123" target="m8FWC069CCOMlwwMVzGk-7" edge="1">
          <mxGeometry width="50" height="50" relative="1" as="geometry">
            <mxPoint x="-180" y="-736" as="sourcePoint" />
            <mxPoint x="-185" y="-678" as="targetPoint" />
            <Array as="points">
              <mxPoint x="-275" y="-723" />
            </Array>
          </mxGeometry>
        </mxCell>
        <mxCell id="A9Ve7NAt99WnuOBKvE6o-131" value="N&lt;br&gt;" style="text;html=1;align=center;verticalAlign=middle;resizable=0;points=[];autosize=1;strokeColor=none;fillColor=none;" parent="1" vertex="1">
          <mxGeometry x="-280" y="-687.5" width="30" height="30" as="geometry" />
        </mxCell>
        <mxCell id="A9Ve7NAt99WnuOBKvE6o-135" value="N&lt;br&gt;" style="text;html=1;align=center;verticalAlign=middle;resizable=0;points=[];autosize=1;strokeColor=#6c8ebf;fillColor=#dae8fc;" parent="1" vertex="1">
          <mxGeometry x="-101" y="-635.5" width="30" height="30" as="geometry" />
        </mxCell>
        <mxCell id="A9Ve7NAt99WnuOBKvE6o-136" value="1" style="text;html=1;align=center;verticalAlign=middle;resizable=0;points=[];autosize=1;strokeColor=#6c8ebf;fillColor=#dae8fc;" parent="1" vertex="1">
          <mxGeometry x="-255" y="-635.5" width="30" height="30" as="geometry" />
        </mxCell>
        <mxCell id="A9Ve7NAt99WnuOBKvE6o-139" value="N&lt;br&gt;" style="text;html=1;align=center;verticalAlign=middle;resizable=0;points=[];autosize=1;strokeColor=#d79b00;fillColor=#ffe6cc;" parent="1" vertex="1">
          <mxGeometry x="-355" y="-622" width="30" height="30" as="geometry" />
        </mxCell>
        <mxCell id="A9Ve7NAt99WnuOBKvE6o-147" value="" style="endArrow=none;html=1;rounded=0;exitX=0.5;exitY=0;exitDx=0;exitDy=0;entryX=0.25;entryY=1;entryDx=0;entryDy=0;fillColor=#fff2cc;strokeColor=#d6b656;" parent="1" source="m8FWC069CCOMlwwMVzGk-35" target="m8FWC069CCOMlwwMVzGk-7" edge="1">
          <mxGeometry width="50" height="50" relative="1" as="geometry">
            <mxPoint x="-200" y="-519" as="sourcePoint" />
            <mxPoint x="-240" y="-632" as="targetPoint" />
          </mxGeometry>
        </mxCell>
        <mxCell id="A9Ve7NAt99WnuOBKvE6o-148" value="" style="endArrow=none;html=1;rounded=0;exitX=0.75;exitY=0;exitDx=0;exitDy=0;entryX=0.5;entryY=1;entryDx=0;entryDy=0;fillColor=#fff2cc;strokeColor=#d6b656;" parent="1" source="m8FWC069CCOMlwwMVzGk-28" target="m8FWC069CCOMlwwMVzGk-35" edge="1">
          <mxGeometry width="50" height="50" relative="1" as="geometry">
            <mxPoint x="-285" y="-518" as="sourcePoint" />
            <mxPoint x="-275" y="-607" as="targetPoint" />
          </mxGeometry>
        </mxCell>
        <mxCell id="A9Ve7NAt99WnuOBKvE6o-149" value="tem" style="rhombus;whiteSpace=wrap;html=1;" parent="1" vertex="1">
          <mxGeometry x="-264" y="-330" width="60" height="60" as="geometry" />
        </mxCell>
        <mxCell id="A9Ve7NAt99WnuOBKvE6o-150" value="" style="endArrow=none;html=1;rounded=0;exitX=0.5;exitY=1;exitDx=0;exitDy=0;entryX=0;entryY=0.5;entryDx=0;entryDy=0;" parent="1" source="m8FWC069CCOMlwwMVzGk-28" target="A9Ve7NAt99WnuOBKvE6o-149" edge="1">
          <mxGeometry width="50" height="50" relative="1" as="geometry">
            <mxPoint x="-340" y="-408" as="sourcePoint" />
            <mxPoint x="-315" y="-474" as="targetPoint" />
            <Array as="points">
              <mxPoint x="-350" y="-300" />
            </Array>
          </mxGeometry>
        </mxCell>
        <mxCell id="A9Ve7NAt99WnuOBKvE6o-151" value="" style="endArrow=none;html=1;rounded=0;exitX=1;exitY=0.5;exitDx=0;exitDy=0;entryX=0;entryY=0.75;entryDx=0;entryDy=0;" parent="1" source="A9Ve7NAt99WnuOBKvE6o-149" target="m8FWC069CCOMlwwMVzGk-29" edge="1">
          <mxGeometry width="50" height="50" relative="1" as="geometry">
            <mxPoint x="-175" y="-368" as="sourcePoint" />
            <mxPoint x="-105" y="-368" as="targetPoint" />
          </mxGeometry>
        </mxCell>
        <mxCell id="A9Ve7NAt99WnuOBKvE6o-152" value="1" style="text;html=1;align=center;verticalAlign=middle;resizable=0;points=[];autosize=1;strokeColor=none;fillColor=none;" parent="1" vertex="1">
          <mxGeometry x="-375" y="-378" width="30" height="30" as="geometry" />
        </mxCell>
        <mxCell id="A9Ve7NAt99WnuOBKvE6o-153" value="N&lt;br&gt;" style="text;html=1;align=center;verticalAlign=middle;resizable=0;points=[];autosize=1;strokeColor=none;fillColor=none;" parent="1" vertex="1">
          <mxGeometry x="-125" y="-307" width="30" height="30" as="geometry" />
        </mxCell>
        <mxCell id="A9Ve7NAt99WnuOBKvE6o-154" value="N&lt;br&gt;" style="text;html=1;align=center;verticalAlign=middle;resizable=0;points=[];autosize=1;strokeColor=#82b366;fillColor=#d5e8d4;" parent="1" vertex="1">
          <mxGeometry x="-36" y="-290" width="30" height="30" as="geometry" />
        </mxCell>
        <mxCell id="A9Ve7NAt99WnuOBKvE6o-155" value="1" style="text;html=1;align=center;verticalAlign=middle;resizable=0;points=[];autosize=1;strokeColor=#82b366;fillColor=#d5e8d4;" parent="1" vertex="1">
          <mxGeometry x="322" y="-268" width="30" height="30" as="geometry" />
        </mxCell>
        <mxCell id="A9Ve7NAt99WnuOBKvE6o-157" value="1" style="text;html=1;align=center;verticalAlign=middle;resizable=0;points=[];autosize=1;strokeColor=none;fillColor=none;" parent="1" vertex="1">
          <mxGeometry x="4" y="-310" width="30" height="30" as="geometry" />
        </mxCell>
        <mxCell id="A9Ve7NAt99WnuOBKvE6o-158" value="N&lt;br&gt;" style="text;html=1;align=center;verticalAlign=middle;resizable=0;points=[];autosize=1;strokeColor=none;fillColor=none;" parent="1" vertex="1">
          <mxGeometry x="235" y="-627.5" width="30" height="30" as="geometry" />
        </mxCell>
        <mxCell id="A9Ve7NAt99WnuOBKvE6o-159" value="1" style="text;html=1;align=center;verticalAlign=middle;resizable=0;points=[];autosize=1;strokeColor=none;fillColor=none;" parent="1" vertex="1">
          <mxGeometry x="-26" y="-360" width="30" height="30" as="geometry" />
        </mxCell>
        <mxCell id="A9Ve7NAt99WnuOBKvE6o-160" value="1" style="text;html=1;align=center;verticalAlign=middle;resizable=0;points=[];autosize=1;strokeColor=none;fillColor=none;" parent="1" vertex="1">
          <mxGeometry x="29" y="-645.5" width="30" height="30" as="geometry" />
        </mxCell>
        <mxCell id="A9Ve7NAt99WnuOBKvE6o-161" value="N&lt;br&gt;" style="text;html=1;align=center;verticalAlign=middle;resizable=0;points=[];autosize=1;strokeColor=none;fillColor=none;" parent="1" vertex="1">
          <mxGeometry x="160" y="-645.5" width="30" height="30" as="geometry" />
        </mxCell>
        <mxCell id="A9Ve7NAt99WnuOBKvE6o-162" value="N&lt;br&gt;" style="text;html=1;align=center;verticalAlign=middle;resizable=0;points=[];autosize=1;strokeColor=none;fillColor=none;" parent="1" vertex="1">
          <mxGeometry x="-29" y="-687.5" width="30" height="30" as="geometry" />
        </mxCell>
        <mxCell id="A9Ve7NAt99WnuOBKvE6o-163" value="1" style="text;html=1;align=center;verticalAlign=middle;resizable=0;points=[];autosize=1;strokeColor=none;fillColor=none;" parent="1" vertex="1">
          <mxGeometry x="-51" y="-888" width="30" height="30" as="geometry" />
        </mxCell>
        <mxCell id="A9Ve7NAt99WnuOBKvE6o-164" value="N&lt;br&gt;" style="text;html=1;align=center;verticalAlign=middle;resizable=0;points=[];autosize=1;strokeColor=#9673a6;fillColor=#e1d5e7;" parent="1" vertex="1">
          <mxGeometry x="360" y="-1004" width="30" height="30" as="geometry" />
        </mxCell>
        <mxCell id="A9Ve7NAt99WnuOBKvE6o-165" value="N&lt;br&gt;" style="text;html=1;align=center;verticalAlign=middle;resizable=0;points=[];autosize=1;strokeColor=#9673a6;fillColor=#e1d5e7;" parent="1" vertex="1">
          <mxGeometry x="29" y="-687.4999999999999" width="30" height="30" as="geometry" />
        </mxCell>
        <mxCell id="A9Ve7NAt99WnuOBKvE6o-166" value="N&lt;br&gt;" style="text;html=1;align=center;verticalAlign=middle;resizable=0;points=[];autosize=1;strokeColor=none;fillColor=none;" parent="1" vertex="1">
          <mxGeometry x="390" y="-1002.6199999999999" width="30" height="30" as="geometry" />
        </mxCell>
        <mxCell id="A9Ve7NAt99WnuOBKvE6o-167" value="N&lt;br&gt;" style="text;html=1;align=center;verticalAlign=middle;resizable=0;points=[];autosize=1;strokeColor=none;fillColor=none;" parent="1" vertex="1">
          <mxGeometry x="390" y="-287.9999999999999" width="30" height="30" as="geometry" />
        </mxCell>
        <mxCell id="A9Ve7NAt99WnuOBKvE6o-168" value="N&lt;br&gt;" style="text;html=1;align=center;verticalAlign=middle;resizable=0;points=[];autosize=1;strokeColor=none;fillColor=none;" parent="1" vertex="1">
          <mxGeometry x="315" y="-1052" width="30" height="30" as="geometry" />
        </mxCell>
        <mxCell id="A9Ve7NAt99WnuOBKvE6o-169" value="N&lt;br&gt;" style="text;html=1;align=center;verticalAlign=middle;resizable=0;points=[];autosize=1;strokeColor=none;fillColor=none;" parent="1" vertex="1">
          <mxGeometry x="-280" y="-1052" width="30" height="30" as="geometry" />
        </mxCell>
        <mxCell id="A9Ve7NAt99WnuOBKvE6o-170" value="idPosicao&lt;br&gt;" style="text;html=1;align=center;verticalAlign=middle;resizable=0;points=[];autosize=1;strokeColor=none;fillColor=none;" parent="1" vertex="1">
          <mxGeometry x="-79" y="-972.6199999999999" width="80" height="30" as="geometry" />
        </mxCell>
        <mxCell id="A9Ve7NAt99WnuOBKvE6o-171" value="nome" style="text;html=1;align=center;verticalAlign=middle;resizable=0;points=[];autosize=1;strokeColor=none;fillColor=none;" parent="1" vertex="1">
          <mxGeometry x="-69" y="-952.6199999999999" width="50" height="30" as="geometry" />
        </mxCell>
        <mxCell id="A9Ve7NAt99WnuOBKvE6o-173" value="nome&lt;br&gt;" style="text;html=1;align=center;verticalAlign=middle;resizable=0;points=[];autosize=1;strokeColor=none;fillColor=none;" parent="1" vertex="1">
          <mxGeometry x="340" y="-1097" width="50" height="30" as="geometry" />
        </mxCell>
        <mxCell id="A9Ve7NAt99WnuOBKvE6o-174" value="Nacionalidade" style="shape=table;startSize=30;container=1;collapsible=1;childLayout=tableLayout;fixedRows=1;rowLines=0;fontStyle=1;align=center;resizeLast=1;html=1;" parent="1" vertex="1">
          <mxGeometry x="-490" y="60" width="180" height="90" as="geometry" />
        </mxCell>
        <mxCell id="A9Ve7NAt99WnuOBKvE6o-175" value="" style="shape=tableRow;horizontal=0;startSize=0;swimlaneHead=0;swimlaneBody=0;fillColor=none;collapsible=0;dropTarget=0;points=[[0,0.5],[1,0.5]];portConstraint=eastwest;top=0;left=0;right=0;bottom=1;" parent="A9Ve7NAt99WnuOBKvE6o-174" vertex="1">
          <mxGeometry y="30" width="180" height="30" as="geometry" />
        </mxCell>
        <mxCell id="A9Ve7NAt99WnuOBKvE6o-176" value="PK" style="shape=partialRectangle;connectable=0;fillColor=none;top=0;left=0;bottom=0;right=0;fontStyle=1;overflow=hidden;whiteSpace=wrap;html=1;" parent="A9Ve7NAt99WnuOBKvE6o-175" vertex="1">
          <mxGeometry width="30" height="30" as="geometry">
            <mxRectangle width="30" height="30" as="alternateBounds" />
          </mxGeometry>
        </mxCell>
        <mxCell id="A9Ve7NAt99WnuOBKvE6o-177" value="idNacionalidade" style="shape=partialRectangle;connectable=0;fillColor=none;top=0;left=0;bottom=0;right=0;align=left;spacingLeft=6;fontStyle=5;overflow=hidden;whiteSpace=wrap;html=1;" parent="A9Ve7NAt99WnuOBKvE6o-175" vertex="1">
          <mxGeometry x="30" width="150" height="30" as="geometry">
            <mxRectangle width="150" height="30" as="alternateBounds" />
          </mxGeometry>
        </mxCell>
        <mxCell id="A9Ve7NAt99WnuOBKvE6o-178" value="" style="shape=tableRow;horizontal=0;startSize=0;swimlaneHead=0;swimlaneBody=0;fillColor=none;collapsible=0;dropTarget=0;points=[[0,0.5],[1,0.5]];portConstraint=eastwest;top=0;left=0;right=0;bottom=0;" parent="A9Ve7NAt99WnuOBKvE6o-174" vertex="1">
          <mxGeometry y="60" width="180" height="30" as="geometry" />
        </mxCell>
        <mxCell id="A9Ve7NAt99WnuOBKvE6o-179" value="" style="shape=partialRectangle;connectable=0;fillColor=none;top=0;left=0;bottom=0;right=0;editable=1;overflow=hidden;whiteSpace=wrap;html=1;" parent="A9Ve7NAt99WnuOBKvE6o-178" vertex="1">
          <mxGeometry width="30" height="30" as="geometry">
            <mxRectangle width="30" height="30" as="alternateBounds" />
          </mxGeometry>
        </mxCell>
        <mxCell id="A9Ve7NAt99WnuOBKvE6o-180" value="nome" style="shape=partialRectangle;connectable=0;fillColor=none;top=0;left=0;bottom=0;right=0;align=left;spacingLeft=6;overflow=hidden;whiteSpace=wrap;html=1;" parent="A9Ve7NAt99WnuOBKvE6o-178" vertex="1">
          <mxGeometry x="30" width="150" height="30" as="geometry">
            <mxRectangle width="150" height="30" as="alternateBounds" />
          </mxGeometry>
        </mxCell>
        <mxCell id="A9Ve7NAt99WnuOBKvE6o-222" value="Nacionalide_Arbitro" style="shape=table;startSize=30;container=1;collapsible=1;childLayout=tableLayout;fixedRows=1;rowLines=0;fontStyle=1;align=center;resizeLast=1;html=1;whiteSpace=wrap;" parent="1" vertex="1">
          <mxGeometry x="100" y="60" width="180" height="90" as="geometry" />
        </mxCell>
        <mxCell id="A9Ve7NAt99WnuOBKvE6o-223" value="" style="shape=tableRow;horizontal=0;startSize=0;swimlaneHead=0;swimlaneBody=0;fillColor=none;collapsible=0;dropTarget=0;points=[[0,0.5],[1,0.5]];portConstraint=eastwest;top=0;left=0;right=0;bottom=0;html=1;" parent="A9Ve7NAt99WnuOBKvE6o-222" vertex="1">
          <mxGeometry y="30" width="180" height="30" as="geometry" />
        </mxCell>
        <mxCell id="A9Ve7NAt99WnuOBKvE6o-224" value="PK,FK1" style="shape=partialRectangle;connectable=0;fillColor=none;top=0;left=0;bottom=0;right=0;fontStyle=1;overflow=hidden;html=1;whiteSpace=wrap;" parent="A9Ve7NAt99WnuOBKvE6o-223" vertex="1">
          <mxGeometry width="60" height="30" as="geometry">
            <mxRectangle width="60" height="30" as="alternateBounds" />
          </mxGeometry>
        </mxCell>
        <mxCell id="A9Ve7NAt99WnuOBKvE6o-225" value="idNacionalidade" style="shape=partialRectangle;connectable=0;fillColor=none;top=0;left=0;bottom=0;right=0;align=left;spacingLeft=6;fontStyle=5;overflow=hidden;html=1;whiteSpace=wrap;" parent="A9Ve7NAt99WnuOBKvE6o-223" vertex="1">
          <mxGeometry x="60" width="120" height="30" as="geometry">
            <mxRectangle width="120" height="30" as="alternateBounds" />
          </mxGeometry>
        </mxCell>
        <mxCell id="A9Ve7NAt99WnuOBKvE6o-226" value="" style="shape=tableRow;horizontal=0;startSize=0;swimlaneHead=0;swimlaneBody=0;fillColor=none;collapsible=0;dropTarget=0;points=[[0,0.5],[1,0.5]];portConstraint=eastwest;top=0;left=0;right=0;bottom=1;html=1;" parent="A9Ve7NAt99WnuOBKvE6o-222" vertex="1">
          <mxGeometry y="60" width="180" height="30" as="geometry" />
        </mxCell>
        <mxCell id="A9Ve7NAt99WnuOBKvE6o-227" value="PK,FK2" style="shape=partialRectangle;connectable=0;fillColor=none;top=0;left=0;bottom=0;right=0;fontStyle=1;overflow=hidden;html=1;whiteSpace=wrap;" parent="A9Ve7NAt99WnuOBKvE6o-226" vertex="1">
          <mxGeometry width="60" height="30" as="geometry">
            <mxRectangle width="60" height="30" as="alternateBounds" />
          </mxGeometry>
        </mxCell>
        <mxCell id="A9Ve7NAt99WnuOBKvE6o-228" value="idArbitro" style="shape=partialRectangle;connectable=0;fillColor=none;top=0;left=0;bottom=0;right=0;align=left;spacingLeft=6;fontStyle=5;overflow=hidden;html=1;whiteSpace=wrap;" parent="A9Ve7NAt99WnuOBKvE6o-226" vertex="1">
          <mxGeometry x="60" width="120" height="30" as="geometry">
            <mxRectangle width="120" height="30" as="alternateBounds" />
          </mxGeometry>
        </mxCell>
        <mxCell id="A9Ve7NAt99WnuOBKvE6o-235" value="Nacionalide_Treinador" style="shape=table;startSize=20;container=1;collapsible=1;childLayout=tableLayout;fixedRows=1;rowLines=0;fontStyle=1;align=center;resizeLast=1;html=1;whiteSpace=wrap;" parent="1" vertex="1">
          <mxGeometry x="-480" y="489" width="180" height="90" as="geometry" />
        </mxCell>
        <mxCell id="A9Ve7NAt99WnuOBKvE6o-236" value="" style="shape=tableRow;horizontal=0;startSize=0;swimlaneHead=0;swimlaneBody=0;fillColor=none;collapsible=0;dropTarget=0;points=[[0,0.5],[1,0.5]];portConstraint=eastwest;top=0;left=0;right=0;bottom=0;html=1;" parent="A9Ve7NAt99WnuOBKvE6o-235" vertex="1">
          <mxGeometry y="20" width="180" height="30" as="geometry" />
        </mxCell>
        <mxCell id="A9Ve7NAt99WnuOBKvE6o-237" value="PK,FK1" style="shape=partialRectangle;connectable=0;fillColor=none;top=0;left=0;bottom=0;right=0;fontStyle=1;overflow=hidden;html=1;whiteSpace=wrap;" parent="A9Ve7NAt99WnuOBKvE6o-236" vertex="1">
          <mxGeometry width="60" height="30" as="geometry">
            <mxRectangle width="60" height="30" as="alternateBounds" />
          </mxGeometry>
        </mxCell>
        <mxCell id="A9Ve7NAt99WnuOBKvE6o-238" value="idTreinador" style="shape=partialRectangle;connectable=0;fillColor=none;top=0;left=0;bottom=0;right=0;align=left;spacingLeft=6;fontStyle=5;overflow=hidden;html=1;whiteSpace=wrap;" parent="A9Ve7NAt99WnuOBKvE6o-236" vertex="1">
          <mxGeometry x="60" width="120" height="30" as="geometry">
            <mxRectangle width="120" height="30" as="alternateBounds" />
          </mxGeometry>
        </mxCell>
        <mxCell id="A9Ve7NAt99WnuOBKvE6o-239" value="" style="shape=tableRow;horizontal=0;startSize=0;swimlaneHead=0;swimlaneBody=0;fillColor=none;collapsible=0;dropTarget=0;points=[[0,0.5],[1,0.5]];portConstraint=eastwest;top=0;left=0;right=0;bottom=1;html=1;" parent="A9Ve7NAt99WnuOBKvE6o-235" vertex="1">
          <mxGeometry y="50" width="180" height="30" as="geometry" />
        </mxCell>
        <mxCell id="A9Ve7NAt99WnuOBKvE6o-240" value="PK,FK2" style="shape=partialRectangle;connectable=0;fillColor=none;top=0;left=0;bottom=0;right=0;fontStyle=1;overflow=hidden;html=1;whiteSpace=wrap;" parent="A9Ve7NAt99WnuOBKvE6o-239" vertex="1">
          <mxGeometry width="60" height="30" as="geometry">
            <mxRectangle width="60" height="30" as="alternateBounds" />
          </mxGeometry>
        </mxCell>
        <mxCell id="A9Ve7NAt99WnuOBKvE6o-241" value="idNacionalidade" style="shape=partialRectangle;connectable=0;fillColor=none;top=0;left=0;bottom=0;right=0;align=left;spacingLeft=6;fontStyle=5;overflow=hidden;html=1;whiteSpace=wrap;" parent="A9Ve7NAt99WnuOBKvE6o-239" vertex="1">
          <mxGeometry x="60" width="120" height="30" as="geometry">
            <mxRectangle width="120" height="30" as="alternateBounds" />
          </mxGeometry>
        </mxCell>
        <mxCell id="A9Ve7NAt99WnuOBKvE6o-248" value="Nacionalide_Jogador" style="shape=table;startSize=20;container=1;collapsible=1;childLayout=tableLayout;fixedRows=1;rowLines=0;fontStyle=1;align=center;resizeLast=1;html=1;whiteSpace=wrap;" parent="1" vertex="1">
          <mxGeometry x="-490" y="770" width="180" height="90" as="geometry" />
        </mxCell>
        <mxCell id="A9Ve7NAt99WnuOBKvE6o-249" value="" style="shape=tableRow;horizontal=0;startSize=0;swimlaneHead=0;swimlaneBody=0;fillColor=none;collapsible=0;dropTarget=0;points=[[0,0.5],[1,0.5]];portConstraint=eastwest;top=0;left=0;right=0;bottom=0;html=1;" parent="A9Ve7NAt99WnuOBKvE6o-248" vertex="1">
          <mxGeometry y="20" width="180" height="30" as="geometry" />
        </mxCell>
        <mxCell id="A9Ve7NAt99WnuOBKvE6o-250" value="PK,FK1" style="shape=partialRectangle;connectable=0;fillColor=none;top=0;left=0;bottom=0;right=0;fontStyle=1;overflow=hidden;html=1;whiteSpace=wrap;" parent="A9Ve7NAt99WnuOBKvE6o-249" vertex="1">
          <mxGeometry width="60" height="30" as="geometry">
            <mxRectangle width="60" height="30" as="alternateBounds" />
          </mxGeometry>
        </mxCell>
        <mxCell id="A9Ve7NAt99WnuOBKvE6o-251" value="idnacionlidade" style="shape=partialRectangle;connectable=0;fillColor=none;top=0;left=0;bottom=0;right=0;align=left;spacingLeft=6;fontStyle=5;overflow=hidden;html=1;whiteSpace=wrap;" parent="A9Ve7NAt99WnuOBKvE6o-249" vertex="1">
          <mxGeometry x="60" width="120" height="30" as="geometry">
            <mxRectangle width="120" height="30" as="alternateBounds" />
          </mxGeometry>
        </mxCell>
        <mxCell id="A9Ve7NAt99WnuOBKvE6o-252" value="" style="shape=tableRow;horizontal=0;startSize=0;swimlaneHead=0;swimlaneBody=0;fillColor=none;collapsible=0;dropTarget=0;points=[[0,0.5],[1,0.5]];portConstraint=eastwest;top=0;left=0;right=0;bottom=1;html=1;" parent="A9Ve7NAt99WnuOBKvE6o-248" vertex="1">
          <mxGeometry y="50" width="180" height="30" as="geometry" />
        </mxCell>
        <mxCell id="A9Ve7NAt99WnuOBKvE6o-253" value="PK,FK2" style="shape=partialRectangle;connectable=0;fillColor=none;top=0;left=0;bottom=0;right=0;fontStyle=1;overflow=hidden;html=1;whiteSpace=wrap;" parent="A9Ve7NAt99WnuOBKvE6o-252" vertex="1">
          <mxGeometry width="60" height="30" as="geometry">
            <mxRectangle width="60" height="30" as="alternateBounds" />
          </mxGeometry>
        </mxCell>
        <mxCell id="A9Ve7NAt99WnuOBKvE6o-254" value="idJogador" style="shape=partialRectangle;connectable=0;fillColor=none;top=0;left=0;bottom=0;right=0;align=left;spacingLeft=6;fontStyle=5;overflow=hidden;html=1;whiteSpace=wrap;" parent="A9Ve7NAt99WnuOBKvE6o-252" vertex="1">
          <mxGeometry x="60" width="120" height="30" as="geometry">
            <mxRectangle width="120" height="30" as="alternateBounds" />
          </mxGeometry>
        </mxCell>
        <mxCell id="A9Ve7NAt99WnuOBKvE6o-261" value="" style="edgeStyle=entityRelationEdgeStyle;fontSize=12;html=1;endArrow=ERoneToMany;rounded=0;entryX=1;entryY=0.5;entryDx=0;entryDy=0;startArrow=ERone;startFill=0;" parent="1" source="_OX-JBq8yyOv4rNZ1e_I-173" target="A9Ve7NAt99WnuOBKvE6o-236" edge="1">
          <mxGeometry width="100" height="100" relative="1" as="geometry">
            <mxPoint x="-720" y="700" as="sourcePoint" />
            <mxPoint x="-630" y="650" as="targetPoint" />
          </mxGeometry>
        </mxCell>
        <mxCell id="A9Ve7NAt99WnuOBKvE6o-262" value="" style="edgeStyle=entityRelationEdgeStyle;fontSize=12;html=1;endArrow=ERoneToMany;rounded=0;entryX=1;entryY=0.5;entryDx=0;entryDy=0;exitX=0;exitY=0.5;exitDx=0;exitDy=0;startArrow=ERone;startFill=0;" parent="1" source="_OX-JBq8yyOv4rNZ1e_I-225" target="A9Ve7NAt99WnuOBKvE6o-252" edge="1">
          <mxGeometry width="100" height="100" relative="1" as="geometry">
            <mxPoint x="-190" y="513" as="sourcePoint" />
            <mxPoint x="-400" y="767" as="targetPoint" />
            <Array as="points">
              <mxPoint x="-270" y="760" />
              <mxPoint x="-260" y="750" />
            </Array>
          </mxGeometry>
        </mxCell>
        <mxCell id="A9Ve7NAt99WnuOBKvE6o-264" value="" style="endArrow=ERone;html=1;rounded=0;entryX=0;entryY=0.5;entryDx=0;entryDy=0;exitX=0;exitY=0.5;exitDx=0;exitDy=0;startArrow=ERmany;startFill=0;endFill=0;" parent="1" source="A9Ve7NAt99WnuOBKvE6o-249" target="A9Ve7NAt99WnuOBKvE6o-175" edge="1">
          <mxGeometry x="-0.1513" y="71" width="50" height="50" relative="1" as="geometry">
            <mxPoint x="-640" y="370" as="sourcePoint" />
            <mxPoint x="-590" y="320" as="targetPoint" />
            <Array as="points">
              <mxPoint x="-620" y="805" />
              <mxPoint x="-630" y="100" />
            </Array>
            <mxPoint as="offset" />
          </mxGeometry>
        </mxCell>
        <mxCell id="A9Ve7NAt99WnuOBKvE6o-265" value="" style="endArrow=ERone;html=1;rounded=0;exitX=0;exitY=0.5;exitDx=0;exitDy=0;startArrow=ERmany;startFill=0;endFill=0;entryX=0;entryY=0.5;entryDx=0;entryDy=0;" parent="1" source="A9Ve7NAt99WnuOBKvE6o-239" target="A9Ve7NAt99WnuOBKvE6o-178" edge="1">
          <mxGeometry x="0.3486" y="142" width="50" height="50" relative="1" as="geometry">
            <mxPoint x="-530" y="1260" as="sourcePoint" />
            <mxPoint x="-530" y="580" as="targetPoint" />
            <Array as="points">
              <mxPoint x="-570" y="560" />
              <mxPoint x="-570" y="320" />
              <mxPoint x="-580" y="130" />
            </Array>
            <mxPoint as="offset" />
          </mxGeometry>
        </mxCell>
        <mxCell id="A9Ve7NAt99WnuOBKvE6o-266" value="" style="endArrow=ERone;html=1;rounded=0;exitX=0;exitY=0.5;exitDx=0;exitDy=0;startArrow=ERmany;startFill=0;endFill=0;entryX=1;entryY=0.5;entryDx=0;entryDy=0;" parent="1" source="A9Ve7NAt99WnuOBKvE6o-223" target="A9Ve7NAt99WnuOBKvE6o-175" edge="1">
          <mxGeometry x="-0.0274" y="190" width="50" height="50" relative="1" as="geometry">
            <mxPoint x="-290" y="564" as="sourcePoint" />
            <mxPoint x="-300" y="85" as="targetPoint" />
            <Array as="points" />
            <mxPoint as="offset" />
          </mxGeometry>
        </mxCell>
        <mxCell id="A9Ve7NAt99WnuOBKvE6o-268" value="N&lt;br&gt;" style="text;html=1;align=center;verticalAlign=middle;resizable=0;points=[];autosize=1;strokeColor=none;fillColor=none;" parent="1" vertex="1">
          <mxGeometry x="-125" y="-348" width="30" height="30" as="geometry" />
        </mxCell>
        <mxCell id="A9Ve7NAt99WnuOBKvE6o-270" value="" style="endArrow=none;html=1;rounded=0;exitX=0;exitY=0.5;exitDx=0;exitDy=0;entryX=0.75;entryY=1;entryDx=0;entryDy=0;" parent="1" source="m8FWC069CCOMlwwMVzGk-38" target="m8FWC069CCOMlwwMVzGk-7" edge="1">
          <mxGeometry width="50" height="50" relative="1" as="geometry">
            <mxPoint x="-210" y="-529" as="sourcePoint" />
            <mxPoint x="-250" y="-642" as="targetPoint" />
            <Array as="points">
              <mxPoint x="-275" y="-548" />
            </Array>
          </mxGeometry>
        </mxCell>
        <mxCell id="A9Ve7NAt99WnuOBKvE6o-269" value="N&lt;br&gt;" style="text;html=1;align=center;verticalAlign=middle;resizable=0;points=[];autosize=1;strokeColor=none;fillColor=none;" parent="1" vertex="1">
          <mxGeometry x="-280" y="-627.5" width="30" height="30" as="geometry" />
        </mxCell>
        <mxCell id="A9Ve7NAt99WnuOBKvE6o-272" value="" style="endArrow=none;html=1;rounded=0;exitX=0.5;exitY=0;exitDx=0;exitDy=0;entryX=0.5;entryY=1;entryDx=0;entryDy=0;fillColor=#d5e8d4;strokeColor=#82b366;" parent="1" source="A9Ve7NAt99WnuOBKvE6o-273" target="m8FWC069CCOMlwwMVzGk-30" edge="1">
          <mxGeometry width="50" height="50" relative="1" as="geometry">
            <mxPoint x="-46" y="-578" as="sourcePoint" />
            <mxPoint x="-35" y="-618" as="targetPoint" />
          </mxGeometry>
        </mxCell>
        <mxCell id="A9Ve7NAt99WnuOBKvE6o-273" value="tem" style="rhombus;whiteSpace=wrap;html=1;fillColor=#d5e8d4;strokeColor=#82b366;" parent="1" vertex="1">
          <mxGeometry x="-51" y="-597.5" width="60" height="60" as="geometry" />
        </mxCell>
        <mxCell id="A9Ve7NAt99WnuOBKvE6o-274" value="" style="endArrow=none;html=1;rounded=0;entryX=0.5;entryY=1;entryDx=0;entryDy=0;exitX=0.75;exitY=0;exitDx=0;exitDy=0;fillColor=#d5e8d4;strokeColor=#82b366;" parent="1" source="m8FWC069CCOMlwwMVzGk-31" target="A9Ve7NAt99WnuOBKvE6o-273" edge="1">
          <mxGeometry width="50" height="50" relative="1" as="geometry">
            <mxPoint x="-45" y="-478" as="sourcePoint" />
            <mxPoint x="31" y="-613" as="targetPoint" />
          </mxGeometry>
        </mxCell>
        <mxCell id="yjV8IHNBRbiahH5CNKhb-1" value="N&lt;br&gt;" style="text;html=1;align=center;verticalAlign=middle;resizable=0;points=[];autosize=1;strokeColor=none;fillColor=none;" parent="1" vertex="1">
          <mxGeometry x="-24" y="-480" width="30" height="30" as="geometry" />
        </mxCell>
        <mxCell id="yjV8IHNBRbiahH5CNKhb-2" value="N" style="text;html=1;align=center;verticalAlign=middle;resizable=0;points=[];autosize=1;strokeColor=#82b366;fillColor=#d5e8d4;" parent="1" vertex="1">
          <mxGeometry x="-44" y="-540" width="30" height="30" as="geometry" />
        </mxCell>
        <mxCell id="yjV8IHNBRbiahH5CNKhb-3" value="N" style="text;html=1;align=center;verticalAlign=middle;resizable=0;points=[];autosize=1;strokeColor=#82b366;fillColor=#d5e8d4;" parent="1" vertex="1">
          <mxGeometry x="-44" y="-622" width="30" height="30" as="geometry" />
        </mxCell>
        <mxCell id="_OX-JBq8yyOv4rNZ1e_I-352" value="" style="edgeStyle=entityRelationEdgeStyle;fontSize=12;html=1;endArrow=ERoneToMany;rounded=0;exitX=0;exitY=0.5;exitDx=0;exitDy=0;entryX=1;entryY=0.5;entryDx=0;entryDy=0;startArrow=ERone;startFill=0;" parent="1" source="_OX-JBq8yyOv4rNZ1e_I-238" target="Dixffc02YmFAOPlYMuIK-10" edge="1">
          <mxGeometry width="100" height="100" relative="1" as="geometry">
            <mxPoint x="296" y="420" as="sourcePoint" />
            <mxPoint x="196" y="520" as="targetPoint" />
          </mxGeometry>
        </mxCell>
        <mxCell id="A9Ve7NAt99WnuOBKvE6o-267" value="" style="endArrow=ERone;html=1;rounded=0;startArrow=ERmany;startFill=0;endFill=0;entryX=-0.006;entryY=0.589;entryDx=0;entryDy=0;exitX=1;exitY=0.5;exitDx=0;exitDy=0;entryPerimeter=0;" parent="1" source="A9Ve7NAt99WnuOBKvE6o-226" target="_OX-JBq8yyOv4rNZ1e_I-212" edge="1">
          <mxGeometry x="-0.0274" y="190" width="50" height="50" relative="1" as="geometry">
            <mxPoint x="-300" y="85" as="sourcePoint" />
            <mxPoint x="110" y="75" as="targetPoint" />
            <Array as="points">
              <mxPoint x="540" y="135" />
              <mxPoint x="580" y="135" />
              <mxPoint x="580" y="160" />
              <mxPoint x="580" y="210" />
              <mxPoint x="650" y="210" />
              <mxPoint x="650" y="258" />
            </Array>
            <mxPoint as="offset" />
          </mxGeometry>
        </mxCell>
        <mxCell id="Dixffc02YmFAOPlYMuIK-21" value="" style="endArrow=ERone;html=1;rounded=0;entryX=-0.003;entryY=0.783;entryDx=0;entryDy=0;entryPerimeter=0;exitX=0;exitY=0.5;exitDx=0;exitDy=0;startArrow=ERoneToMany;startFill=0;endFill=0;" parent="1" source="Dixffc02YmFAOPlYMuIK-4" target="_OX-JBq8yyOv4rNZ1e_I-238" edge="1">
          <mxGeometry width="50" height="50" relative="1" as="geometry">
            <mxPoint x="560" y="540" as="sourcePoint" />
            <mxPoint x="510" y="590" as="targetPoint" />
            <Array as="points">
              <mxPoint x="320" y="375" />
              <mxPoint x="320" y="483" />
            </Array>
          </mxGeometry>
        </mxCell>
        <mxCell id="Dixffc02YmFAOPlYMuIK-25" value="" style="edgeStyle=entityRelationEdgeStyle;fontSize=12;html=1;endArrow=ERoneToMany;rounded=0;entryX=0;entryY=0.5;entryDx=0;entryDy=0;startArrow=ERone;startFill=0;" parent="1" target="Dixffc02YmFAOPlYMuIK-26" edge="1">
          <mxGeometry width="100" height="100" relative="1" as="geometry">
            <mxPoint x="90" y="682" as="sourcePoint" />
            <mxPoint x="640" y="930" as="targetPoint" />
          </mxGeometry>
        </mxCell>
        <mxCell id="Dixffc02YmFAOPlYMuIK-32" value="Jogador_Substituicao" style="shape=table;startSize=30;container=1;collapsible=1;childLayout=tableLayout;fixedRows=1;rowLines=0;fontStyle=1;align=center;resizeLast=1;html=1;whiteSpace=wrap;" parent="1" vertex="1">
          <mxGeometry x="414" y="705" width="180" height="90" as="geometry" />
        </mxCell>
        <mxCell id="Dixffc02YmFAOPlYMuIK-33" value="" style="shape=tableRow;horizontal=0;startSize=0;swimlaneHead=0;swimlaneBody=0;fillColor=none;collapsible=0;dropTarget=0;points=[[0,0.5],[1,0.5]];portConstraint=eastwest;top=0;left=0;right=0;bottom=0;html=1;" parent="Dixffc02YmFAOPlYMuIK-32" vertex="1">
          <mxGeometry y="30" width="180" height="30" as="geometry" />
        </mxCell>
        <mxCell id="Dixffc02YmFAOPlYMuIK-34" value="PK,FK1" style="shape=partialRectangle;connectable=0;fillColor=none;top=0;left=0;bottom=0;right=0;fontStyle=1;overflow=hidden;html=1;whiteSpace=wrap;" parent="Dixffc02YmFAOPlYMuIK-33" vertex="1">
          <mxGeometry width="60" height="30" as="geometry">
            <mxRectangle width="60" height="30" as="alternateBounds" />
          </mxGeometry>
        </mxCell>
        <mxCell id="Dixffc02YmFAOPlYMuIK-35" value="idJogador" style="shape=partialRectangle;connectable=0;fillColor=none;top=0;left=0;bottom=0;right=0;align=left;spacingLeft=6;fontStyle=5;overflow=hidden;html=1;whiteSpace=wrap;" parent="Dixffc02YmFAOPlYMuIK-33" vertex="1">
          <mxGeometry x="60" width="120" height="30" as="geometry">
            <mxRectangle width="120" height="30" as="alternateBounds" />
          </mxGeometry>
        </mxCell>
        <mxCell id="Dixffc02YmFAOPlYMuIK-36" value="" style="shape=tableRow;horizontal=0;startSize=0;swimlaneHead=0;swimlaneBody=0;fillColor=none;collapsible=0;dropTarget=0;points=[[0,0.5],[1,0.5]];portConstraint=eastwest;top=0;left=0;right=0;bottom=1;html=1;" parent="Dixffc02YmFAOPlYMuIK-32" vertex="1">
          <mxGeometry y="60" width="180" height="30" as="geometry" />
        </mxCell>
        <mxCell id="Dixffc02YmFAOPlYMuIK-37" value="PK,FK2" style="shape=partialRectangle;connectable=0;fillColor=none;top=0;left=0;bottom=0;right=0;fontStyle=1;overflow=hidden;html=1;whiteSpace=wrap;" parent="Dixffc02YmFAOPlYMuIK-36" vertex="1">
          <mxGeometry width="60" height="30" as="geometry">
            <mxRectangle width="60" height="30" as="alternateBounds" />
          </mxGeometry>
        </mxCell>
        <mxCell id="Dixffc02YmFAOPlYMuIK-38" value="idSubstituicao" style="shape=partialRectangle;connectable=0;fillColor=none;top=0;left=0;bottom=0;right=0;align=left;spacingLeft=6;fontStyle=5;overflow=hidden;html=1;whiteSpace=wrap;" parent="Dixffc02YmFAOPlYMuIK-36" vertex="1">
          <mxGeometry x="60" width="120" height="30" as="geometry">
            <mxRectangle width="120" height="30" as="alternateBounds" />
          </mxGeometry>
        </mxCell>
        <mxCell id="Dixffc02YmFAOPlYMuIK-19" value="" style="edgeStyle=entityRelationEdgeStyle;fontSize=12;html=1;endArrow=ERone;rounded=0;exitX=0;exitY=0.5;exitDx=0;exitDy=0;entryX=1.003;entryY=0.75;entryDx=0;entryDy=0;startArrow=ERoneToMany;startFill=0;endFill=0;entryPerimeter=0;" parent="1" source="Dixffc02YmFAOPlYMuIK-33" target="_OX-JBq8yyOv4rNZ1e_I-225" edge="1">
          <mxGeometry width="100" height="100" relative="1" as="geometry">
            <mxPoint x="590" y="580" as="sourcePoint" />
            <mxPoint x="490" y="680" as="targetPoint" />
            <Array as="points">
              <mxPoint x="450" y="840" />
              <mxPoint x="440" y="820" />
            </Array>
          </mxGeometry>
        </mxCell>
        <mxCell id="Dixffc02YmFAOPlYMuIK-45" value="" style="edgeStyle=entityRelationEdgeStyle;fontSize=12;html=1;endArrow=ERone;rounded=0;exitX=1;exitY=0.5;exitDx=0;exitDy=0;entryX=0;entryY=0.5;entryDx=0;entryDy=0;startArrow=ERoneToMany;startFill=0;endFill=0;" parent="1" source="Dixffc02YmFAOPlYMuIK-36" target="_OX-JBq8yyOv4rNZ1e_I-281" edge="1">
          <mxGeometry width="100" height="100" relative="1" as="geometry">
            <mxPoint x="434" y="765" as="sourcePoint" />
            <mxPoint x="101" y="713" as="targetPoint" />
            <Array as="points">
              <mxPoint x="460" y="850" />
              <mxPoint x="450" y="830" />
            </Array>
          </mxGeometry>
        </mxCell>
        <mxCell id="Dixffc02YmFAOPlYMuIK-46" value="data_entrada" style="text;html=1;align=center;verticalAlign=middle;resizable=0;points=[];autosize=1;strokeColor=none;fillColor=none;" parent="1" vertex="1">
          <mxGeometry x="-210" y="-782" width="90" height="30" as="geometry" />
        </mxCell>
        <mxCell id="Dixffc02YmFAOPlYMuIK-47" value="data_saída" style="text;html=1;align=center;verticalAlign=middle;resizable=0;points=[];autosize=1;strokeColor=none;fillColor=none;" parent="1" vertex="1">
          <mxGeometry x="-210" y="-813" width="80" height="30" as="geometry" />
        </mxCell>
        <mxCell id="CT4uHmn1NIrWlONmK34_-1" value="1" style="text;html=1;align=center;verticalAlign=middle;resizable=0;points=[];autosize=1;strokeColor=#d79b00;fillColor=#ffe6cc;" vertex="1" parent="1">
          <mxGeometry x="-355" y="-450" width="30" height="30" as="geometry" />
        </mxCell>
      </root>
    </mxGraphModel>
  </diagram>
</mxfile>
